<?xml version="1.0" encoding="utf-8"?>
<!-- Generator: Adobe Illustrator 16.0.0, SVG Export Plug-In . SVG Version: 6.00 Build 0)  -->
<!DOCTYPE svg PUBLIC "-//W3C//DTD SVG 1.1//EN" "http://www.w3.org/Graphics/SVG/1.1/DTD/svg11.dtd">
<svg version="1.1" id="Calque_1" xmlns="http://www.w3.org/2000/svg" xmlns:xlink="http://www.w3.org/1999/xlink" x="0px" y="0px"
	 width="9021px" height="97px" viewBox="0 0 9021 97" enable-background="new 0 0 9021 97" xml:space="preserve">
<g>
	<g id="Cover_71_">
		<g>
			<polygon fill="#F3F2F1" points="7741.576,12.405 7681.41,12.405 7681.424,58.115 7681.41,84.7 7741.576,84.7 7741.59,58.115
				"/>
		</g>
	</g>
</g>
<g>
	<g id="Cover_74_">
		<g>
			<polygon fill="#F3F2F1" points="7645.334,11.545 7583.666,11.545 7583.681,58.396 7583.666,85.645 7645.334,85.645
				7645.346,58.396 			"/>
		</g>
	</g>
</g>
<g>
</g>
<g>
	<g id="Cover_2_">
		<g>
			<path fill="#F3F2F1" d="M3959.304,16.139c0.029-4.014-0.616-4.764-4.75-4.75l-52.135-0.014c-3.669,0-4.753,0.139-4.75,4.75
				l0.294,64.598c-0.025,4.34,1.1,4.59,4.75,4.749l51.878-0.019c3.847-0.016,4.742-1.767,4.75-4.749L3959.304,16.139z"/>
		</g>
	</g>
</g>
<g>
</g>
<g>
	<g id="Cover_10_">
		<g>
			<path fill="#F3F2F1" d="M4056.304,16.264c0-2.623-2.126-4.75-4.75-4.75l-52.135-0.014c-2.623,0-4.75,2.127-4.75,4.75
				l0.294,64.598c0,2.622,2.127,4.749,4.75,4.749l51.878-0.019c2.624,0,4.75-2.127,4.75-4.749L4056.304,16.264z"/>
		</g>
	</g>
</g>
<g>
</g>
<g>
	<g id="Cover_8_">
		<g>
			<path fill="#F3F2F1" d="M4153.304,16.264c0-2.623-2.126-4.75-4.75-4.75l-52.135-0.014c-2.623,0-4.75,2.127-4.75,4.75
				l0.294,64.598c0,2.622,2.127,4.749,4.75,4.749l51.878-0.019c2.624,0,4.75-2.127,4.75-4.749L4153.304,16.264z"/>
		</g>
	</g>
</g>
<g>
</g>
<g>
	<g id="Cover_6_">
		<g>
			<path fill="#F3F2F1" d="M4250.304,16.264c0-2.623-2.126-4.75-4.75-4.75l-52.135-0.014c-2.623,0-4.75,2.127-4.75,4.75
				l0.294,64.598c0,2.622,2.127,4.749,4.75,4.749l51.878-0.019c2.624,0,4.75-2.127,4.75-4.749L4250.304,16.264z"/>
		</g>
	</g>
</g>
<g>
</g>
<g>
	<g id="Cover_3_">
		<g>
			<path fill="#F3F2F1" d="M4347.304,16.264c0-2.623-2.126-4.75-4.75-4.75l-52.135-0.014c-2.623,0-4.75,2.127-4.75,4.75
				l0.294,64.598c0,2.622,2.127,4.749,4.75,4.749l51.878-0.019c2.624,0,4.75-2.127,4.75-4.749L4347.304,16.264z"/>
		</g>
	</g>
</g>
<g>
	<path fill="#F3F2F1" d="M270.963,80.127c0.201-0.133,0.394-0.287,0.571-0.465c1.38-1.379,1.38-3.615,0-4.992
		c-0.388-0.389-0.845-0.664-1.329-0.834c0.591-1.982,1.678-7.295-0.479-14.965c1.322-0.225,2.33-1.373,2.33-2.76
		c0-0.844-0.373-1.6-0.963-2.113c1.355-1.01,2.288-3.102,2.288-5.52c0-2.416-0.933-4.507-2.288-5.518
		c0.59-0.515,0.963-1.27,0.963-2.112c0-1.386-1.007-2.534-2.33-2.761c1.912-6.801,1.276-11.748,0.694-14.163
		c0.405-0.171,0.784-0.419,1.114-0.75c1.38-1.379,1.38-3.615,0-4.994c-0.176-0.178-0.369-0.333-0.571-0.464
		c0.313-0.148,0.612-0.354,0.878-0.619c1.107-1.106,1.207-2.801,0.223-3.785c-0.983-0.984-2.68-0.885-3.785,0.221
		c-0.264,0.265-0.47,0.563-0.618,0.878c-0.133-0.203-0.288-0.395-0.465-0.573c-1.378-1.378-3.615-1.378-4.993,0
		c-0.252,0.252-0.454,0.533-0.615,0.832c-1.436-0.513-4.521-1.226-8.852-0.14c-0.416-1.033-1.422-1.763-2.602-1.763
		c-0.845,0-1.598,0.372-2.113,0.961c-1.014-1.355-3.104-2.286-5.521-2.286c-2.417,0-4.507,0.931-5.519,2.286
		c-0.513-0.588-1.27-0.96-2.112-0.96c-1.18,0-2.188,0.73-2.602,1.763c-4.335-1.084-7.417-0.373-8.854,0.14
		c-0.159-0.298-0.363-0.58-0.615-0.832c-1.379-1.379-3.615-1.379-4.994,0c-0.178,0.178-0.333,0.37-0.463,0.572
		c-0.148-0.314-0.355-0.613-0.618-0.878c-1.106-1.106-2.801-1.205-3.786-0.221c-0.984,0.985-0.884,2.68,0.222,3.785
		c0.264,0.266,0.563,0.471,0.878,0.619c-0.204,0.133-0.396,0.287-0.574,0.465c-1.378,1.378-1.378,3.615,0,4.994
		c0.331,0.33,0.709,0.58,1.115,0.751c-0.581,2.417-1.218,7.362,0.695,14.162c-1.322,0.227-2.33,1.374-2.33,2.76
		c0,0.844,0.372,1.598,0.961,2.112c-1.357,1.011-2.287,3.103-2.287,5.518c0,2.417,0.931,4.507,2.287,5.519
		c-0.588,0.514-0.961,1.27-0.961,2.113c0,1.387,1.006,2.535,2.33,2.76c-2.159,7.672-1.071,12.982-0.48,14.967
		c-0.484,0.168-0.941,0.445-1.33,0.832c-1.378,1.377-1.378,3.615,0,4.992c0.178,0.178,0.371,0.332,0.573,0.465
		c-0.314,0.148-0.613,0.355-0.878,0.619c-1.106,1.105-1.206,2.801-0.222,3.783c0.984,0.986,2.679,0.885,3.786-0.221
		c0.264-0.264,0.47-0.562,0.618-0.877c0.132,0.201,0.287,0.395,0.464,0.57c1.378,1.379,3.615,1.379,4.994,0
		c0.463-0.461,0.767-1.021,0.917-1.613c1.543,0.496,4.5,1.053,8.55,0.037c0.414,1.035,1.421,1.766,2.602,1.766
		c0.842,0,1.598-0.373,2.112-0.961c1.012,1.355,3.103,2.285,5.518,2.285c2.418,0,4.508-0.93,5.52-2.285
		c0.514,0.59,1.27,0.961,2.112,0.961c1.181,0,2.188-0.729,2.603-1.764c4.051,1.014,7.008,0.459,8.55-0.037
		c0.151,0.592,0.456,1.15,0.919,1.613c1.377,1.379,3.613,1.379,4.992,0c0.178-0.178,0.332-0.369,0.464-0.572
		c0.149,0.314,0.354,0.613,0.618,0.879c1.106,1.105,2.802,1.205,3.785,0.221c0.984-0.984,0.885-2.678-0.222-3.783
		C271.575,80.479,271.277,80.273,270.963,80.127z M263.715,75.85h-42.33V21.274h42.33V75.85L263.715,75.85z"/>
</g>
<g>
	<path fill="#F3F2F1" d="M173.963,80.127c0.201-0.133,0.394-0.287,0.571-0.465c1.38-1.379,1.38-3.615,0-4.992
		c-0.388-0.389-0.845-0.664-1.329-0.834c0.591-1.982,1.678-7.295-0.479-14.965c1.322-0.225,2.33-1.373,2.33-2.76
		c0-0.844-0.373-1.6-0.963-2.113c1.355-1.01,2.288-3.102,2.288-5.52c0-2.416-0.933-4.507-2.288-5.518
		c0.59-0.515,0.963-1.27,0.963-2.112c0-1.386-1.007-2.534-2.33-2.761c1.912-6.801,1.276-11.748,0.694-14.163
		c0.405-0.171,0.784-0.419,1.114-0.75c1.38-1.379,1.38-3.615,0-4.994c-0.176-0.178-0.369-0.333-0.571-0.464
		c0.313-0.148,0.612-0.354,0.878-0.619c1.107-1.106,1.207-2.801,0.223-3.785c-0.983-0.984-2.68-0.885-3.785,0.221
		c-0.264,0.265-0.47,0.563-0.618,0.878c-0.133-0.203-0.288-0.395-0.465-0.573c-1.378-1.378-3.615-1.378-4.993,0
		c-0.252,0.252-0.454,0.533-0.615,0.832c-1.436-0.513-4.521-1.226-8.852-0.14c-0.416-1.033-1.422-1.763-2.602-1.763
		c-0.845,0-1.598,0.372-2.113,0.961c-1.014-1.355-3.104-2.286-5.521-2.286c-2.417,0-4.507,0.931-5.519,2.286
		c-0.513-0.588-1.27-0.96-2.112-0.96c-1.18,0-2.188,0.73-2.602,1.763c-4.335-1.084-7.417-0.373-8.854,0.14
		c-0.159-0.298-0.363-0.58-0.615-0.832c-1.379-1.379-3.615-1.379-4.994,0c-0.178,0.178-0.333,0.37-0.463,0.572
		c-0.148-0.314-0.355-0.613-0.618-0.878c-1.106-1.106-2.801-1.205-3.786-0.221c-0.984,0.985-0.884,2.68,0.222,3.785
		c0.264,0.266,0.563,0.471,0.878,0.619c-0.204,0.133-0.396,0.287-0.574,0.465c-1.378,1.378-1.378,3.615,0,4.994
		c0.331,0.33,0.709,0.58,1.115,0.751c-0.581,2.417-1.218,7.362,0.695,14.162c-1.322,0.227-2.33,1.374-2.33,2.76
		c0,0.844,0.372,1.598,0.961,2.112c-1.357,1.011-2.287,3.103-2.287,5.518c0,2.417,0.931,4.507,2.287,5.519
		c-0.588,0.514-0.961,1.27-0.961,2.113c0,1.387,1.006,2.535,2.33,2.76c-2.159,7.672-1.071,12.982-0.48,14.967
		c-0.484,0.168-0.941,0.445-1.33,0.832c-1.378,1.377-1.378,3.615,0,4.992c0.178,0.178,0.371,0.332,0.573,0.465
		c-0.314,0.148-0.613,0.355-0.878,0.619c-1.106,1.105-1.206,2.801-0.222,3.783c0.984,0.986,2.679,0.885,3.786-0.221
		c0.264-0.264,0.47-0.562,0.618-0.877c0.132,0.201,0.287,0.395,0.464,0.57c1.378,1.379,3.615,1.379,4.994,0
		c0.463-0.461,0.767-1.021,0.917-1.613c1.543,0.496,4.5,1.053,8.55,0.037c0.414,1.035,1.421,1.766,2.602,1.766
		c0.842,0,1.598-0.373,2.112-0.961c1.012,1.355,3.103,2.285,5.518,2.285c2.418,0,4.508-0.93,5.52-2.285
		c0.514,0.59,1.27,0.961,2.112,0.961c1.181,0,2.188-0.729,2.603-1.764c4.051,1.014,7.008,0.459,8.55-0.037
		c0.151,0.592,0.456,1.15,0.919,1.613c1.377,1.379,3.613,1.379,4.992,0c0.178-0.178,0.332-0.369,0.464-0.572
		c0.149,0.314,0.354,0.613,0.618,0.879c1.106,1.105,2.802,1.205,3.785,0.221c0.984-0.984,0.885-2.678-0.222-3.783
		C174.575,80.479,174.277,80.273,173.963,80.127z M166.715,75.85h-42.33V21.274h42.33V75.85L166.715,75.85z"/>
</g>
<g>
	<path fill="#F3F2F1" d="M76.963,80.127c0.201-0.133,0.394-0.287,0.571-0.465c1.38-1.379,1.38-3.615,0-4.992
		c-0.388-0.389-0.845-0.664-1.329-0.834c0.591-1.982,1.678-7.295-0.479-14.965c1.322-0.225,2.33-1.373,2.33-2.76
		c0-0.844-0.373-1.6-0.963-2.113c1.355-1.01,2.288-3.102,2.288-5.52c0-2.416-0.933-4.507-2.288-5.518
		c0.59-0.515,0.963-1.27,0.963-2.112c0-1.386-1.007-2.534-2.33-2.761c1.912-6.801,1.276-11.748,0.694-14.163
		c0.405-0.171,0.784-0.419,1.114-0.75c1.38-1.379,1.38-3.615,0-4.994c-0.176-0.178-0.369-0.333-0.571-0.464
		c0.313-0.148,0.612-0.354,0.878-0.619c1.107-1.106,1.207-2.801,0.223-3.785c-0.983-0.984-2.68-0.885-3.785,0.221
		c-0.264,0.265-0.47,0.563-0.618,0.878c-0.133-0.203-0.288-0.395-0.465-0.573c-1.378-1.378-3.615-1.378-4.993,0
		c-0.252,0.252-0.454,0.533-0.615,0.832c-1.436-0.513-4.521-1.226-8.852-0.14c-0.416-1.033-1.422-1.763-2.602-1.763
		c-0.845,0-1.598,0.372-2.113,0.961c-1.014-1.355-3.104-2.286-5.521-2.286c-2.417,0-4.507,0.931-5.519,2.286
		c-0.513-0.588-1.27-0.96-2.112-0.96c-1.18,0-2.188,0.73-2.602,1.763c-4.335-1.084-7.417-0.373-8.854,0.14
		c-0.159-0.298-0.363-0.58-0.615-0.832c-1.379-1.379-3.615-1.379-4.994,0c-0.178,0.178-0.333,0.37-0.463,0.572
		c-0.148-0.314-0.355-0.613-0.618-0.878c-1.106-1.106-2.801-1.205-3.786-0.221c-0.984,0.985-0.884,2.68,0.222,3.785
		c0.264,0.266,0.563,0.471,0.878,0.619c-0.204,0.133-0.396,0.287-0.574,0.465c-1.378,1.378-1.378,3.615,0,4.994
		c0.331,0.33,0.709,0.58,1.115,0.751c-0.581,2.417-1.218,7.362,0.695,14.162c-1.322,0.227-2.33,1.374-2.33,2.76
		c0,0.844,0.372,1.598,0.961,2.112c-1.357,1.011-2.287,3.103-2.287,5.517c0,2.418,0.931,4.508,2.287,5.52
		c-0.588,0.514-0.961,1.27-0.961,2.113c0,1.387,1.006,2.535,2.33,2.76c-2.159,7.672-1.071,12.982-0.48,14.967
		c-0.484,0.168-0.941,0.445-1.33,0.832c-1.378,1.377-1.378,3.615,0,4.992c0.178,0.178,0.371,0.332,0.573,0.465
		c-0.314,0.148-0.613,0.355-0.878,0.619c-1.106,1.105-1.206,2.801-0.222,3.783c0.984,0.986,2.679,0.885,3.786-0.221
		c0.264-0.264,0.47-0.562,0.618-0.877c0.132,0.201,0.287,0.395,0.464,0.57c1.378,1.379,3.615,1.379,4.994,0
		c0.463-0.461,0.767-1.021,0.917-1.613c1.543,0.496,4.5,1.053,8.55,0.037c0.414,1.035,1.421,1.766,2.602,1.766
		c0.842,0,1.598-0.373,2.112-0.961c1.012,1.355,3.103,2.285,5.518,2.285c2.418,0,4.508-0.93,5.52-2.285
		c0.514,0.59,1.27,0.961,2.112,0.961c1.181,0,2.188-0.729,2.603-1.764c4.051,1.014,7.008,0.459,8.55-0.037
		c0.151,0.592,0.456,1.15,0.919,1.613c1.377,1.379,3.613,1.379,4.992,0c0.178-0.178,0.332-0.369,0.464-0.572
		c0.149,0.314,0.354,0.613,0.618,0.879c1.106,1.105,2.802,1.205,3.785,0.221c0.984-0.984,0.885-2.678-0.222-3.783
		C77.575,80.479,77.277,80.273,76.963,80.127z M69.715,75.85h-42.33V21.274h42.33V75.85L69.715,75.85z"/>
</g>
<g>
	<path fill="#F3F2F1" d="M8806.963,80.127c0.201-0.133,0.394-0.287,0.571-0.465c1.38-1.379,1.38-3.615,0-4.992
		c-0.388-0.389-0.845-0.664-1.329-0.834c0.591-1.982,1.678-7.295-0.479-14.965c1.322-0.225,2.33-1.373,2.33-2.76
		c0-0.844-0.373-1.6-0.963-2.113c1.355-1.01,2.287-3.102,2.287-5.52c0-2.416-0.932-4.508-2.287-5.518
		c0.59-0.516,0.963-1.27,0.963-2.113c0-1.385-1.008-2.533-2.33-2.76c1.912-6.801,1.276-11.748,0.693-14.164
		c0.406-0.17,0.785-0.419,1.115-0.749c1.381-1.38,1.381-3.614,0-4.994c-0.176-0.178-0.369-0.333-0.571-0.464
		c0.313-0.148,0.612-0.354,0.878-0.619c1.107-1.105,1.207-2.801,0.223-3.785s-2.68-0.885-3.785,0.221
		c-0.264,0.265-0.47,0.563-0.619,0.878c-0.133-0.203-0.287-0.396-0.465-0.573c-1.377-1.378-3.615-1.378-4.992,0
		c-0.252,0.252-0.453,0.533-0.615,0.832c-1.436-0.512-4.521-1.225-8.852-0.14c-0.416-1.032-1.422-1.763-2.602-1.763
		c-0.845,0-1.598,0.371-2.113,0.961c-1.014-1.355-3.104-2.287-5.521-2.287s-4.508,0.932-5.52,2.287
		c-0.513-0.589-1.27-0.961-2.111-0.961c-1.18,0-2.188,0.73-2.602,1.764c-4.335-1.084-7.418-0.373-8.854,0.14
		c-0.159-0.298-0.363-0.58-0.615-0.831c-1.379-1.379-3.614-1.379-4.994,0c-0.178,0.178-0.332,0.369-0.463,0.572
		c-0.148-0.314-0.355-0.613-0.619-0.879c-1.105-1.105-2.801-1.205-3.785-0.221c-0.983,0.985-0.883,2.68,0.223,3.785
		c0.264,0.266,0.562,0.471,0.878,0.619c-0.204,0.133-0.396,0.287-0.574,0.465c-1.378,1.379-1.378,3.615,0,4.994
		c0.331,0.33,0.71,0.58,1.114,0.752c-0.58,2.416-1.219,7.361,0.695,14.162c-1.322,0.227-2.33,1.373-2.33,2.76
		c0,0.844,0.371,1.598,0.961,2.111c-1.357,1.012-2.286,3.104-2.286,5.518c0,2.418,0.931,4.508,2.286,5.52
		c-0.588,0.514-0.961,1.27-0.961,2.113c0,1.387,1.006,2.535,2.33,2.76c-2.158,7.672-1.071,12.982-0.48,14.967
		c-0.484,0.168-0.941,0.445-1.329,0.832c-1.378,1.377-1.378,3.615,0,4.992c0.178,0.178,0.37,0.332,0.573,0.465
		c-0.314,0.148-0.613,0.355-0.879,0.619c-1.105,1.105-1.205,2.801-0.222,3.783c0.983,0.986,2.679,0.885,3.786-0.221
		c0.264-0.264,0.469-0.562,0.617-0.877c0.133,0.201,0.287,0.395,0.465,0.57c1.379,1.379,3.615,1.379,4.994,0
		c0.463-0.461,0.767-1.021,0.918-1.613c1.543,0.496,4.499,1.053,8.549,0.037c0.414,1.035,1.422,1.766,2.602,1.766
		c0.844,0,1.6-0.373,2.113-0.961c1.012,1.355,3.102,2.285,5.518,2.285c2.418,0,4.508-0.93,5.52-2.285
		c0.514,0.59,1.27,0.961,2.111,0.961c1.182,0,2.189-0.729,2.604-1.764c4.051,1.014,7.008,0.459,8.55-0.037
		c0.151,0.592,0.456,1.15,0.919,1.613c1.377,1.379,3.613,1.379,4.992,0c0.178-0.178,0.332-0.369,0.464-0.572
		c0.149,0.314,0.354,0.613,0.618,0.879c1.105,1.105,2.801,1.205,3.785,0.221s0.885-2.678-0.222-3.783
		C8807.575,80.479,8807.277,80.273,8806.963,80.127z M8799.715,75.85h-42.33V21.273h42.33V75.85L8799.715,75.85z"/>
</g>
<g>
	<path fill="#F3F2F1" d="M8903.963,80.17c0.201-0.133,0.394-0.287,0.571-0.465c1.38-1.379,1.38-3.615,0-4.992
		c-0.388-0.389-0.845-0.664-1.329-0.834c0.591-1.982,1.678-7.295-0.479-14.965c1.322-0.225,2.33-1.373,2.33-2.76
		c0-0.844-0.373-1.6-0.963-2.113c1.355-1.01,2.287-3.102,2.287-5.52c0-2.416-0.932-4.508-2.287-5.518
		c0.59-0.516,0.963-1.27,0.963-2.113c0-1.385-1.008-2.533-2.33-2.76c1.912-6.801,1.276-11.748,0.693-14.164
		c0.406-0.17,0.785-0.419,1.115-0.749c1.381-1.38,1.381-3.614,0-4.994c-0.176-0.178-0.369-0.333-0.571-0.464
		c0.313-0.148,0.612-0.354,0.878-0.619c1.107-1.105,1.207-2.801,0.223-3.785s-2.68-0.885-3.785,0.221
		c-0.264,0.265-0.47,0.563-0.619,0.878c-0.133-0.203-0.287-0.396-0.465-0.573c-1.377-1.378-3.615-1.378-4.992,0
		c-0.252,0.252-0.453,0.533-0.615,0.832c-1.436-0.512-4.521-1.225-8.852-0.14c-0.416-1.032-1.422-1.763-2.602-1.763
		c-0.845,0-1.598,0.371-2.113,0.961c-1.014-1.355-3.104-2.287-5.521-2.287s-4.508,0.932-5.52,2.287
		c-0.513-0.589-1.27-0.961-2.111-0.961c-1.18,0-2.188,0.73-2.602,1.764c-4.335-1.084-7.418-0.373-8.854,0.14
		c-0.159-0.298-0.363-0.58-0.615-0.831c-1.379-1.379-3.614-1.379-4.994,0c-0.178,0.178-0.332,0.369-0.463,0.572
		c-0.148-0.314-0.355-0.613-0.619-0.879c-1.105-1.105-2.801-1.205-3.785-0.221c-0.983,0.985-0.883,2.68,0.223,3.785
		c0.264,0.266,0.562,0.471,0.878,0.619c-0.204,0.133-0.396,0.287-0.574,0.465c-1.378,1.379-1.378,3.615,0,4.994
		c0.331,0.33,0.71,0.58,1.114,0.752c-0.58,2.416-1.219,7.361,0.695,14.162c-1.322,0.227-2.33,1.373-2.33,2.76
		c0,0.844,0.371,1.598,0.961,2.111c-1.357,1.012-2.286,3.104-2.286,5.518c0,2.418,0.931,4.508,2.286,5.52
		c-0.588,0.514-0.961,1.27-0.961,2.113c0,1.387,1.006,2.535,2.33,2.76c-2.158,7.672-1.071,12.982-0.48,14.967
		c-0.484,0.168-0.941,0.445-1.329,0.832c-1.378,1.377-1.378,3.615,0,4.992c0.178,0.178,0.37,0.332,0.573,0.465
		c-0.314,0.148-0.613,0.355-0.879,0.619c-1.105,1.105-1.205,2.801-0.222,3.783c0.983,0.986,2.679,0.885,3.786-0.221
		c0.264-0.264,0.469-0.562,0.617-0.877c0.133,0.201,0.287,0.395,0.465,0.57c1.379,1.379,3.615,1.379,4.994,0
		c0.463-0.461,0.767-1.021,0.918-1.613c1.543,0.496,4.499,1.053,8.549,0.037c0.414,1.035,1.422,1.766,2.602,1.766
		c0.844,0,1.6-0.373,2.113-0.961c1.012,1.355,3.102,2.285,5.518,2.285c2.418,0,4.508-0.93,5.52-2.285
		c0.514,0.59,1.27,0.961,2.111,0.961c1.182,0,2.189-0.729,2.604-1.764c4.051,1.014,7.008,0.459,8.55-0.037
		c0.151,0.592,0.456,1.15,0.919,1.613c1.377,1.379,3.613,1.379,4.992,0c0.178-0.178,0.332-0.369,0.464-0.572
		c0.149,0.314,0.354,0.613,0.618,0.879c1.105,1.105,2.801,1.205,3.785,0.221s0.885-2.678-0.222-3.783
		C8904.575,80.521,8904.277,80.316,8903.963,80.17z M8896.715,75.893h-42.33V21.316h42.33V75.893L8896.715,75.893z"/>
</g>
<g>
	<path fill="#F3F2F1" d="M9000.963,80.17c0.201-0.133,0.394-0.287,0.571-0.465c1.38-1.379,1.38-3.615,0-4.992
		c-0.388-0.389-0.845-0.664-1.329-0.834c0.591-1.982,1.678-7.295-0.479-14.965c1.322-0.225,2.33-1.373,2.33-2.76
		c0-0.844-0.373-1.6-0.963-2.113c1.355-1.01,2.287-3.102,2.287-5.52c0-2.416-0.932-4.508-2.287-5.518
		c0.59-0.516,0.963-1.27,0.963-2.113c0-1.385-1.008-2.533-2.33-2.76c1.912-6.801,1.276-11.748,0.693-14.164
		c0.406-0.17,0.785-0.419,1.115-0.749c1.381-1.38,1.381-3.614,0-4.994c-0.176-0.178-0.369-0.333-0.571-0.464
		c0.313-0.148,0.612-0.354,0.878-0.619c1.107-1.105,1.207-2.801,0.223-3.785s-2.68-0.885-3.785,0.221
		c-0.264,0.265-0.47,0.563-0.619,0.878c-0.133-0.203-0.287-0.396-0.465-0.573c-1.377-1.378-3.615-1.378-4.992,0
		c-0.252,0.252-0.453,0.533-0.615,0.832c-1.436-0.512-4.521-1.225-8.852-0.14c-0.416-1.032-1.422-1.763-2.602-1.763
		c-0.845,0-1.598,0.371-2.113,0.961c-1.014-1.355-3.104-2.287-5.521-2.287s-4.508,0.932-5.52,2.287
		c-0.513-0.589-1.27-0.961-2.111-0.961c-1.18,0-2.188,0.73-2.602,1.764c-4.335-1.084-7.418-0.373-8.854,0.14
		c-0.159-0.298-0.363-0.58-0.615-0.831c-1.379-1.379-3.614-1.379-4.994,0c-0.178,0.178-0.332,0.369-0.463,0.572
		c-0.148-0.314-0.355-0.613-0.619-0.879c-1.105-1.105-2.801-1.205-3.785-0.221c-0.983,0.985-0.883,2.68,0.223,3.785
		c0.264,0.266,0.562,0.471,0.878,0.619c-0.204,0.133-0.396,0.287-0.574,0.465c-1.378,1.379-1.378,3.615,0,4.994
		c0.331,0.33,0.71,0.58,1.114,0.752c-0.58,2.416-1.219,7.361,0.695,14.162c-1.322,0.227-2.33,1.373-2.33,2.76
		c0,0.844,0.371,1.598,0.961,2.111c-1.357,1.012-2.286,3.104-2.286,5.518c0,2.418,0.931,4.508,2.286,5.52
		c-0.588,0.514-0.961,1.27-0.961,2.113c0,1.387,1.006,2.535,2.33,2.76c-2.158,7.672-1.071,12.982-0.48,14.967
		c-0.484,0.168-0.941,0.445-1.329,0.832c-1.378,1.377-1.378,3.615,0,4.992c0.178,0.178,0.37,0.332,0.573,0.465
		c-0.314,0.148-0.613,0.355-0.879,0.619c-1.105,1.105-1.205,2.801-0.222,3.783c0.983,0.986,2.679,0.885,3.786-0.221
		c0.264-0.264,0.469-0.562,0.617-0.877c0.133,0.201,0.287,0.395,0.465,0.57c1.379,1.379,3.615,1.379,4.994,0
		c0.463-0.461,0.767-1.021,0.918-1.613c1.543,0.496,4.499,1.053,8.549,0.037c0.414,1.035,1.422,1.766,2.602,1.766
		c0.844,0,1.6-0.373,2.113-0.961c1.012,1.355,3.102,2.285,5.518,2.285c2.418,0,4.508-0.93,5.52-2.285
		c0.514,0.59,1.27,0.961,2.111,0.961c1.182,0,2.189-0.729,2.604-1.764c4.051,1.014,7.008,0.459,8.55-0.037
		c0.151,0.592,0.456,1.15,0.919,1.613c1.377,1.379,3.613,1.379,4.992,0c0.178-0.178,0.332-0.369,0.464-0.572
		c0.149,0.314,0.354,0.613,0.618,0.879c1.105,1.105,2.801,1.205,3.785,0.221s0.885-2.678-0.222-3.783
		C9001.575,80.521,9001.277,80.316,9000.963,80.17z M8993.715,75.893h-42.33V21.316h42.33V75.893L8993.715,75.893z"/>
</g>
<g>
</g>
<g>
	<g>
		<polygon fill="#F3F2F1" points="2248.666,64.922 2279.484,85.582 2279.484,11.514 		"/>
		<polygon fill="#D4D1CC" points="2307.666,60.133 2301.369,48.824 2279.484,11.514 2279.484,85.582 2307.666,66.707
			2310.333,64.922 		"/>
	</g>
</g>
<g>
	<g>
		<polygon fill="#F3F2F1" points="2345.666,64.922 2376.484,85.582 2376.484,11.514 		"/>
		<polygon fill="#D4D1CC" points="2404.666,60.133 2398.369,48.824 2376.484,11.514 2376.484,85.582 2404.666,66.707
			2407.333,64.922 		"/>
	</g>
</g>
<g>
	<g>
		<polygon fill="#F3F2F1" points="2442.666,64.922 2473.484,85.582 2473.484,11.514 		"/>
		<polygon fill="#D4D1CC" points="2501.666,60.133 2495.369,48.824 2473.484,11.514 2473.484,85.582 2501.666,66.707
			2504.333,64.922 		"/>
	</g>
</g>
<g>
	<g>
		<polygon fill="#F3F2F1" points="2539.666,64.922 2570.484,85.582 2570.484,11.514 		"/>
		<polygon fill="#D4D1CC" points="2598.666,60.133 2592.369,48.824 2570.484,11.514 2570.484,85.582 2598.666,66.707
			2601.333,64.922 		"/>
	</g>
</g>
<g>
	<g>
		<polygon fill="#F3F2F1" points="2636.666,64.922 2667.484,85.582 2667.484,11.514 		"/>
		<polygon fill="#D4D1CC" points="2695.666,60.133 2689.369,48.824 2667.484,11.514 2667.484,85.582 2695.666,66.707
			2698.333,64.922 		"/>
	</g>
</g>
<g>
	<g>
		<polygon fill="#F3F2F1" points="2733.666,64.923 2764.484,85.583 2764.484,11.515 		"/>
		<polygon fill="#D4D1CC" points="2792.666,60.134 2786.369,48.825 2764.484,11.515 2764.484,85.583 2792.666,66.708
			2795.333,64.923 		"/>
	</g>
</g>
<g>
	<g>
		<polygon fill="#F3F2F1" points="2830.666,64.923 2861.484,85.583 2861.484,11.515 		"/>
		<polygon fill="#D4D1CC" points="2889.666,60.134 2883.369,48.825 2861.484,11.515 2861.484,85.583 2889.666,66.708
			2892.333,64.923 		"/>
	</g>
</g>
<g>
	<g>
		<polygon fill="#F3F2F1" points="2927.666,65.922 2957.703,85.594 2958.484,85.582 2958.484,11.514 2957.594,11.516
			2927.666,63.781 		"/>
		<polygon fill="#D4D1CC" points="2959.312,11.5 2958.484,11.514 2958.484,85.582 2959.219,85.578 2989.333,65.922 2989.333,63.469
					"/>
	</g>
</g>
<g>
	<g>
		<polygon fill="#F3F2F1" points="3024.666,67.922 3052.703,85.594 3055.484,85.582 3055.484,11.514 3051.594,11.516
			3024.666,61.781 		"/>
		<polygon fill="#D4D1CC" points="3059.312,11.5 3055.484,11.514 3055.484,85.582 3058.219,85.578 3086.333,67.922 3086.333,61.469
					"/>
	</g>
</g>
<g>
	<g>
		<polygon fill="#F3F2F1" points="3121.666,69.922 3147.688,85.578 3152.484,85.582 3152.484,11.514 3146.594,11.516
			3121.666,59.781 		"/>
		<polygon fill="#DCD9D5" points="3158.312,11.5 3152.484,11.514 3152.484,85.582 3157.219,85.578 3183.333,69.922 3183.333,59.469
					"/>
	</g>
</g>
<g>
	<g>
		<polygon fill="#F3F2F1" points="3218.666,72.921 3241.688,85.577 3249.484,85.581 3249.484,11.514 3239.594,11.516
			3218.666,56.78 		"/>
		<polygon fill="#E4E2DE" points="3259.234,11.5 3249.484,11.514 3249.484,85.581 3257.219,85.577 3280.333,72.921 3280.333,56.468
					"/>
	</g>
</g>
<g>
	<g>
		<polygon fill="#F3F2F1" points="3315.666,75.921 3334.688,85.577 3346.484,85.581 3346.484,11.514 3332.594,11.516
			3315.666,51.78 		"/>
		<polygon fill="#E4E2DE" points="3360.234,11.5 3346.484,11.514 3346.484,85.581 3358.219,85.577 3377.333,75.921 3377.333,51.468
					"/>
	</g>
</g>
<g>
	<g>
		<polygon fill="#F3F2F1" points="3412.666,77.921 3428.688,85.577 3443.484,85.581 3443.484,11.514 3429.594,11.516
			3412.666,45.78 		"/>
		<polygon fill="#EBEAE8" points="3461.234,11.5 3443.484,11.514 3443.484,85.581 3458.219,85.577 3474.333,77.921 3474.333,45.468
					"/>
	</g>
</g>
<g>
	<g>
		<polygon fill="#F3F2F1" points="3509.666,79.921 3521.688,85.577 3540.484,85.581 3540.484,11.514 3518.594,11.516
			3509.666,35.78 		"/>
		<polygon fill="#EBEAE8" points="3561.234,11.5 3540.484,11.514 3540.484,85.581 3559.219,85.577 3571.333,79.921 3571.333,35.468
					"/>
	</g>
</g>
<g>
	<g>
		<polygon fill="#F3F2F1" points="3606.666,81.921 3615.688,85.577 3637.484,85.581 3637.484,11.514 3612.594,11.516
			3606.666,25.78 		"/>
		<polygon fill="#F3F2F1" points="3661.234,11.5 3637.484,11.514 3637.484,85.581 3660.219,85.577 3668.333,81.921 3668.333,25.468
					"/>
	</g>
</g>
<g>
	<g>
		<polygon fill="#F3F2F1" points="3703.666,83.921 3708.688,85.577 3734.484,85.581 3734.484,11.514 3707.594,11.516
			3703.666,16.78 		"/>
		<polygon fill="#F3F2F1" points="3760.234,11.5 3734.484,11.514 3734.484,85.581 3761.219,85.577 3765.333,83.921 3765.333,16.468
					"/>
	</g>
</g>
<g>
	<g>
		<rect x="3800.666" y="11.515" fill="#F3F2F1" width="30.818" height="74.067"/>
		<rect x="3831.484" y="11.514" fill="#F3F2F1" width="30.849" height="74.067"/>
	</g>
</g>
<g>
</g>
<g>
	<rect x="318.385" y="21.295" fill="none" width="21.1" height="54.576"/>
	<path fill="#F3F2F1" d="M320.385,73.871V23.295h19.1V12.464c-2.411,0.004-4.494-0.066-5.503,1.286
		c-0.513-0.589-1.27,0.039-2.112,0.039c-1.18,0-2.188-0.27-2.602,0.764c-4.893-0.646-7.417-0.373-8.854,0.14
		c-0.159-0.298-0.279-0.713-0.615-0.831c-2.174-0.768-3.174-0.486-4.994,0c-0.243,0.065-0.333,0.369-0.463,0.572
		c-0.148-0.314-0.299-0.684-0.618-0.879c-1.567-0.961-1.801-0.205-2.786,0.779c-0.984,0.985-1.219,1.322-0.778,2.785
		c0.108,0.358,0.563,0.471,0.878,0.619c-0.204,0.133-0.485,0.229-0.574,0.465c-0.683,1.797-0.651,2.984,0,4.994
		c0.144,0.444,0.709,0.58,1.115,0.752c-0.581,2.416-1.218,7.361,0.695,14.162c-1.322,0.227-1.606,0.96-1.606,2.347
		c0,0.844-0.352,2.01,0.238,2.524c-1.357,1.012-1.405,2.729-1.405,5.143c0,2.418,0.049,4.883,1.405,5.895
		c-0.588,0.514-0.28,1.387-0.28,2.23c0,1.387,0.325,2.418,1.648,2.643c-1.148,8.232-1.071,12.982-0.48,14.967
		c-0.484,0.168-1.175,0.307-1.33,0.832c-0.714,2.434-0.464,2.809,0,4.992c0.052,0.246,0.371,0.332,0.573,0.465
		c-0.314,0.148-0.613,0.355-0.878,0.619c-1.106,1.105-0.393,1.75,0.591,2.732c0.984,0.986,1.866,1.936,2.972,0.83
		c0.264-0.264,0.47-0.562,0.618-0.877c0.132,0.201,0.229,0.486,0.464,0.57c1.695,0.602,2.191,1.23,3.57-0.148
		c0.463-0.461,2.19-0.873,2.341-1.465c1.543,0.496,4.5,1.053,8.55,0.037c0.414,1.035,1.178,1.178,2.358,1.178
		c0.842,0,1.841,0.215,2.355-0.373c1.01,1.353,3.095,1.245,5.504,1.248V73.871H320.385z"/>
	<path fill="#EBEAE8" d="M339.484,84.5c2.418,0,4.521,0.107,5.533-1.248c0.514,0.59,1.27,0.961,2.112,0.961
		c1.181,0,2.188-0.729,2.603-1.764c4.051,1.014,7.008,0.459,8.55-0.037c0.151,0.592,0.27,1.532,0.919,1.613
		c1.799,0.225,3.424,0.225,4.992,0c0.249-0.035,0.332-0.369,0.464-0.572c0.149,0.314,0.354,0.613,0.618,0.879
		c1.106,1.105,1.241,0.027,2.225-0.957c0.984-0.984,2.445-1.5,1.339-2.605c-0.264-0.27-0.562-0.475-0.876-0.621
		c0.201-0.133,0.575-0.214,0.571-0.465c-0.034-2.434-0.159-2.809,0-4.992c0.04-0.548-0.845-0.664-1.329-0.834
		c0.591-1.982,1.678-7.295-0.479-14.965c1.322-0.225,1.273-0.881,1.273-2.268c0-0.844,0.684-2.092,0.094-2.605
		c1.355-1.01,1.156-3.102,1.156-5.52c0-2.416,0.199-4.508-1.156-5.518c0.59-0.516,0.828-1.214,0.281-1.857
		c-1.057-1.244-0.325-2.789-1.648-3.016c0.898-8.109,1.276-11.748,0.694-14.164c0.405-0.17,1.029-0.29,1.114-0.749
		c0.34-1.821,0.34-2.946,0-4.994c-0.041-0.247-0.369-0.333-0.571-0.464c0.313-0.148,0.612-0.354,0.878-0.619
		c1.107-1.105,0.143-2.135-0.842-3.119c-0.983-0.984-1.615-1.551-2.721-0.445c-0.264,0.265-0.47,0.563-0.618,0.878
		c-0.133-0.203-0.239-0.465-0.465-0.573c-2.571-1.234-2.821-0.484-4.993,0c-0.348,0.078-0.454,0.533-0.615,0.832
		c-1.436-0.512-4.463-0.441-8.852-0.14c-0.416-1.032-1.432-1.177-2.611-1.177c-0.845,0-1.588-0.215-2.104,0.375
		c-0.561-0.75-4.209-0.938-5.521-1.287c-0.005-0.001,0.005,0.662,0,0.662l-0.016,10.17h19.23v50.576h-19.23"/>
</g>
<g>
</g>
<rect x="415.385" y="21.295" fill="none" width="21.1" height="54.576"/>
<g>
	<polygon fill="#009640" points="436.498,14.937 436.484,14.937 436.484,25.295 	"/>
	<path fill="#F3F2F1" d="M430.981,13.75c-0.513-0.589-1.27,0.039-2.112,0.039c-1.18,0-2.188-0.27-2.602,0.764
		c-4.893-0.646-7.417-0.373-8.854,0.14c-0.159-0.298-0.279,0.287-0.615,0.169c-2.174-0.768-3.174-0.486-4.994,0
		c-0.243,0.065-0.333-0.631-0.463-0.428c-0.148-0.314-0.299,0.316-0.618,0.121c-1.567-0.961-0.801-0.205-1.786,0.779
		c-0.984,0.985-1.219,0.322-0.778,1.785c0.108,0.358-0.437,0.471-0.122,0.619c-0.204,0.133,0.515,0.229,0.426,0.465
		c-0.683,1.797-0.651,1.984,0,3.994c0.144,0.444,0.709,1.58,1.115,1.752c-0.183,2.946-0.329,6.425,0.695,14.162
		c-1.322,0.227-1.606,0.96-1.606,2.347c0,0.844-0.352,2.01,0.238,2.524c-1.357,1.012-1.405,2.729-1.405,5.143
		c0,2.418,0.208,3.583,0.405,5.895c-0.588,0.514,0.72,1.387,0.72,2.23c0,1.387,0.325,2.418,1.648,2.643
		c-1.148,8.232-0.481,12.42-0.48,14.967c-0.484,0.168-1.175,0.307-1.33,0.832c-0.714,2.434-0.464,2.809,0,4.992
		c0.052,0.246-0.629,0.332-0.427,0.465c-0.314,0.148,0.387,0.355,0.122,0.619c-1.106,1.105-0.393,0.75,0.591,1.732
		c0.984,0.986,0.866,1.936,1.972,0.83c0.264-0.264,0.47,0.438,0.618,0.123c0.132,0.201,0.229-0.514,0.464-0.43
		c1.695,0.602,1.633,0.456,3.57-0.148c0.624-0.194,2.19,0.127,2.341-0.465c1.543,0.496,4.18,0.693,8.55,0.037
		c0.414,1.035,1.178,0.178,2.358,0.178c0.842,0,1.841,0.215,2.355-0.373c1.01,1.353,3.095,1.245,5.504,1.248v-1.437V68.871h-15.1
		V28.295h15.1V14.937v-1.473C434.074,13.468,431.99,12.397,430.981,13.75z"/>
	<path fill="#EBEAE8" d="M465.25,48.5c0-2.416-0.625-3.813-1.156-5.518c0.59-0.516,0.828-1.214,0.281-1.857
		c-1.057-1.244,0.675-2.789-0.648-3.016c0.898-8.109,0.276-11.748-0.306-14.164c0.405-0.17,1.029-0.29,1.114-0.749
		c0.34-1.821,0.34-2.946,0-4.994c-0.041-0.247,0.631-0.333,0.429-0.464c0.313-0.148-0.388-0.354-0.122-0.619
		c1.107-1.105,0.143-1.135-0.842-2.119c-0.983-0.984-0.615-1.551-1.721-0.445c-0.264,0.265-0.47-0.437-0.618-0.122
		c-0.133-0.203-0.239,0.535-0.465,0.427c-2.571-1.234-2.821-0.484-4.993,0c-0.348,0.078-0.454-0.467-0.615-0.168
		c-1.436-0.512-4.463-0.441-8.852-0.14c-0.416-1.032-1.432-1.177-2.611-1.177c-0.845,0-1.588-0.215-2.104,0.375
		c-0.561-0.75-4.209,0.062-5.521-0.287c0,0,0-0.012,0-0.015l-0.002,1.488l-0.013,13.358h14.23v40.576h-14.23v13.192V83.5
		c2.418,0,3.787-0.167,5.533-1.248c0.514,0.59,1.27,0.961,2.112,0.961c1.181,0,2.188,0.271,2.603-0.764
		c4.051,1.014,7.008,0.459,8.55-0.037c0.151,0.592,0.27,0.532,0.919,0.613c1.799,0.225,2.424,0.225,3.992,0
		c0.249-0.035,1.332,0.631,1.464,0.428c0.149,0.314,0.354-0.387,0.618-0.121c1.106,1.105,0.241,0.027,1.225-0.957
		c0.984-0.984,0.521-0.417,0.339-1.605c-0.057-0.373,1.438-0.475,1.124-0.621c0.201-0.133-0.425-0.214-0.429-0.465
		c-0.034-2.434-0.159-2.809,0-4.992c0.04-0.548-0.845-0.664-1.329-0.834c0.591-1.982-0.08-7.045-0.479-14.965
		c1.322-0.225,1.273-0.881,1.273-2.268c0-0.844,0.684-2.092,0.094-2.605C465.449,53.01,465.25,50.918,465.25,48.5z"/>
</g>
<g>
</g>
<rect x="512.385" y="21.295" fill="none" width="21.1" height="54.576"/>
<g>
	<path fill="#51C1E2" d="M533.484,14.464c-2.411,0.004-4.494-1.066-5.503,0.286c-0.513-0.589-1.27,0.039-2.112,0.039
		c-0.821,0-1.554-0.121-2.066,0.147h9.681V14.464z"/>
	<path fill="#51C1E2" d="M507.188,83.136C507.179,83.217,507.203,83.212,507.188,83.136L507.188,83.136z"/>
	<path fill="#24B2DA" d="M533.484,82.5"/>
	<polygon fill="#009640" points="533.498,14.937 533.484,14.937 533.484,25.295 	"/>
	<path fill="#009640" d="M508.676,82.063h0.246c-0.042-0.015-0.073-0.024-0.118-0.04C508.756,82.006,508.714,82.027,508.676,82.063z
		"/>
	<path fill="#F3F2F1" d="M533.484,31.295V14.937h-9.681h-9.886c-0.039-0.026-0.072-0.059-0.118-0.075
		c-2.174-0.768-3.174-0.486-4.994,0c-0.243,0.065-0.333-0.631-0.463-0.428c-0.148-0.314-0.413-0.191-0.618,0.121
		c-0.849,1.289,0.199,0.795-0.786,1.779c-0.984,0.985-0.5,0.197-0.778,1.785c-0.064,0.369-0.162,0.232,0.152,0.381
		c-0.204,0.133,0.241,0.467,0.151,0.703c-0.683,1.797,0.38,0.766,0,2.994c-0.079,0.46,0.709,1.58,1.115,1.752
		c-0.183,2.946-1.329,6.425-0.305,14.162c-1.322,0.227-0.606,1.96-0.606,3.347c0,0.844-0.352,2.01,0.238,2.524
		c-1.357,1.012-0.405,1.729-0.405,4.143c0,2.418-0.792,3.583-0.595,5.895c-0.588,0.514,0.72,1.387,0.72,2.23
		c0,1.387,0.325,2.418,1.648,2.643c-1.148,8.232-0.481,12.42-0.48,14.967c-0.484,0.168-1.295,0.285-1.33,0.832
		c-0.151,2.434-0.464,2.809,0,4.992c0.052,0.246-0.629,0.332-0.427,0.465c-0.314,0.148,0.387,0.355,0.122,0.619
		c-1.106,1.105-0.393,0.75,0.591,1.732c0.334,0.335,0.419,0.541,0.438,0.636c0.013-0.113,0.107-0.379,0.534-0.806
		c0.264-0.264,0.47,0.438,0.618,0.123c0.104,0.159,0.188-0.253,0.336-0.39c0.038-0.036,0.08-0.058,0.128-0.04
		c0.044,0.016,0.075,0.025,0.118,0.04c1.378,0.483,1.552,0.425,2.863,0h17.267c1.12,0.482,2.688,0.435,4.432,0.437v-0.437V65.871
		h-11.1V31.295H533.484z"/>
	<path fill="#E4E2DE" d="M560.842,17.119c1.107-1.105,0.611-0.541-0.373-1.525c-0.983-0.984-0.281-1.5-1.189-1.039
		c-0.333,0.169-0.47-0.437-0.618-0.122c-0.133-0.203-0.239,0.535-0.465,0.427c-2.571-1.234-2.821-0.484-4.993,0
		c-0.348,0.078-0.454-0.467-0.615-0.168c-0.828-0.295-2.202-0.061-4.044,0.245h-6.167c-0.345-0.2-0.626-0.343-1.252-0.343
		c-0.845,0-1.588-0.434-2.104,0.156c-0.561-0.75-4.209,0.062-5.521-0.287l-0.002,0.474l-0.013,16.358h11.23v34.576h-11.23v16.192
		V82.5c1.592,0,2.728-0.078,3.818-0.437h20.024c0.378,0.136,1.216,0.566,1.331,0.39c0.149,0.314,0.248-0.068,0.618-0.121
		c1.225-0.176,0.116,0.684,1.1-0.301c0.984-0.984-0.354-0.073-0.536-1.262c-0.057-0.373,0.438-0.475,0.124-0.621
		c0.201-0.133,0.575-0.214,0.571-0.465c-0.034-2.434-0.881-1.75-0.722-3.934c0.04-0.548-0.123-1.723-0.607-1.893
		c0.591-1.982-0.08-7.045-0.479-14.965c1.322-0.225,1.273-0.881,1.273-2.268c0-0.844,0.684-2.092,0.094-2.605
		c1.355-1.01,0.156-3.102,0.156-5.52c0-2.416,0.375-3.813-0.156-5.518c0.59-0.516,0.828-1.214,0.281-1.857
		c-1.057-1.244,0.675-2.789-0.648-3.016c0.898-8.109,0.276-11.748-0.306-14.164c0.405-0.17,0.523-1.291,0.517-1.758
		c-0.031-2.219,0.531-1.938,0.598-3.985c0.008-0.25,0.631-0.333,0.429-0.464C561.277,17.59,560.576,17.385,560.842,17.119z"/>
</g>
<g>
</g>
<rect x="609.385" y="21.295" fill="none" width="21.1" height="54.576"/>
<g>
	<path fill="#24B2DA" d="M656.818,81.172C656.886,81.13,656.903,81.102,656.818,81.172L656.818,81.172z"/>
	<line fill="#24B2DA" x1="630.498" y1="14.937" x2="630.499" y2="14.937"/>
	<path fill="#F3F2F1" d="M608.308,14.937c-0.801-0.247-1.538-0.333-2.502-0.075c-0.243,0.065-0.237-0.314-0.368-0.111
		c-0.148-0.314-0.138-0.188-0.344,0.125c-0.849,1.289,0.829,0.475-0.156,1.459c-0.984,0.985,0.5,0.197,0.222,1.785
		c-0.064,0.369-0.631,0.482-0.316,0.631c-0.203,0.132,0.121,0.576,0.031,0.812c-0.683,1.797,0.349,0.49-0.031,2.719
		c-0.079,0.46-0.28,2.172,0.125,2.344c-0.183,2.946-0.344,4.656,0.062,13.531c-0.531,1.406-0.219,2.145-0.219,3.531
		c0,0.844-0.34,2.236,0.25,2.75c-0.5,1.969-0.469,1.648-0.469,4.062c0,2.418-0.634,2.876-0.438,5.188
		c-0.588,0.514,0.312,2.156,0.312,3c0,1.09,0.118,1.676,0.808,1.986v15.247c-0.415,0.229-0.818,0.545-0.839,0.892
		c-0.151,2.434-0.651,2.535-0.188,4.719c0.052,0.246-0.233,0.398-0.031,0.531c-0.314,0.148-0.206,0.379-0.156,0.75
		c0.062,0.469,0,0.656,0.312,0.719c0.362,0.072,0.331-0.064,0.902-0.3v0.832h25.206c0-0.338,0-0.563,0.001-0.563V63.871h-9.1V33.295
		h9.1v-8l0.013-10.358H608.308z"/>
	<path fill="#E4E2DE" d="M656.842,17.119c0.049-0.604-0.326-0.604-0.357-1.275c-0.013-0.287-0.047-0.188-0.205-0.289
		c-0.109-0.07-0.322-0.143-0.556-0.196v-0.422h-0.535c0.056-0.042,0.074-0.072,0.008-0.077c-1.22-0.101-1.919-0.05-2.438,0.077
		h-22.26h-0.001l-0.013,18.358h9.23v30.576h-9.23V81.5v0.563h25.239v-0.302c0.67,0.02-0.128,0.613,0.746-0.262
		c0.18-0.18,0.289-0.278,0.349-0.328c-0.147,0.092-0.529,0.241-0.63-0.422c-0.057-0.373,0.471-0.697,0.156-0.844
		c0.201-0.133,0.097-0.405,0.094-0.656c-0.034-2.434-0.628-1.566-0.469-3.75c0.022-0.311-0.073-0.738-0.246-1.085V58.421
		c0.292-0.37,0.277-0.944,0.277-1.796c0-0.844,0.684-2.092,0.094-2.605c1.355-1.01,0.156-3.102,0.156-5.52
		c0-2.416,0.375-3.813-0.156-5.518c0.59-0.516,0.828-1.214,0.281-1.857c-1.057-1.244,0.675-2.789-0.648-3.016
		c0.74-6.682,0.448-10.325-0.003-12.753V23.54c0.163-0.417,0.219-1.034,0.214-1.353c-0.031-2.219,0.531-1.938,0.598-3.985
		c0.008-0.25,0.631-0.333,0.429-0.464C657.277,17.59,656.812,17.494,656.842,17.119z"/>
	<path fill="#009640" d="M630.483,82.063h0.001V81.5C630.483,81.5,630.483,81.726,630.483,82.063z"/>
</g>
<g>
	<path fill="#F3F2F1" d="M8709.963,80.127c0.201-0.133,0.394-0.287,0.571-0.465c1.38-1.379,1.38-3.615,0-4.992
		c-0.388-0.389-0.845-0.664-1.329-0.834c0.591-1.982,1.678-7.295-0.479-14.965c1.322-0.225,2.33-1.373,2.33-2.76
		c0-0.844-0.373-1.6-0.963-2.113c1.355-1.01,2.287-3.102,2.287-5.52c0-2.416-0.932-4.508-2.287-5.518
		c0.59-0.516,0.963-1.27,0.963-2.113c0-1.385-1.008-2.533-2.33-2.76c1.912-6.801,1.276-11.748,0.693-14.164
		c0.406-0.17,0.785-0.419,1.115-0.749c1.381-1.38,1.381-3.614,0-4.994c-0.176-0.178-0.369-0.333-0.571-0.464
		c0.313-0.148,0.612-0.354,0.878-0.619c1.107-1.105,1.207-2.801,0.223-3.785s-2.68-0.885-3.785,0.221
		c-0.264,0.265-0.47,0.563-0.619,0.878c-0.133-0.203-0.287-0.396-0.465-0.573c-1.377-1.378-3.615-1.378-4.992,0
		c-0.252,0.252-0.453,0.533-0.615,0.832c-1.436-0.512-4.521-1.225-8.852-0.14c-0.416-1.032-1.422-1.763-2.602-1.763
		c-0.845,0-1.598,0.371-2.113,0.961c-1.014-1.355-3.104-2.287-5.521-2.287c-2.416,0-4.507,0.932-5.519,2.287
		c-0.514-0.589-1.27-0.961-2.112-0.961c-1.181,0-2.188,0.73-2.602,1.764c-4.335-1.084-7.418-0.373-8.854,0.14
		c-0.159-0.298-0.362-0.58-0.614-0.831c-1.38-1.379-3.615-1.379-4.995,0c-0.177,0.178-0.332,0.369-0.463,0.572
		c-0.148-0.314-0.355-0.613-0.619-0.879c-1.105-1.105-2.8-1.205-3.785-0.221c-0.983,0.985-0.885,2.68,0.223,3.785
		c0.264,0.266,0.562,0.471,0.878,0.619c-0.202,0.133-0.396,0.287-0.574,0.465c-1.378,1.379-1.378,3.615,0,4.994
		c0.329,0.33,0.708,0.58,1.115,0.752c-0.581,2.416-1.22,7.361,0.694,14.162c-1.322,0.227-2.33,1.373-2.33,2.76
		c0,0.844,0.371,1.598,0.962,2.111c-1.357,1.012-2.287,3.104-2.287,5.518c0,2.418,0.931,4.508,2.287,5.52
		c-0.589,0.514-0.962,1.27-0.962,2.113c0,1.387,1.007,2.535,2.33,2.76c-2.159,7.672-1.071,12.982-0.48,14.967
		c-0.483,0.168-0.94,0.445-1.329,0.832c-1.378,1.377-1.378,3.615,0,4.992c0.178,0.178,0.372,0.332,0.571,0.465
		c-0.314,0.148-0.611,0.355-0.876,0.619c-1.106,1.105-1.208,2.801-0.223,3.783c0.983,0.986,2.679,0.885,3.784-0.221
		c0.266-0.264,0.471-0.562,0.62-0.877c0.131,0.201,0.286,0.395,0.464,0.57c1.377,1.379,3.614,1.379,4.994,0
		c0.463-0.461,0.767-1.021,0.917-1.613c1.543,0.496,4.5,1.053,8.55,0.037c0.415,1.035,1.422,1.766,2.602,1.766
		c0.843,0,1.598-0.373,2.111-0.961c1.014,1.355,3.105,2.285,5.52,2.285c2.418,0,4.508-0.93,5.52-2.285
		c0.514,0.59,1.27,0.961,2.111,0.961c1.182,0,2.189-0.729,2.604-1.764c4.051,1.014,7.008,0.459,8.55-0.037
		c0.151,0.592,0.456,1.15,0.919,1.613c1.377,1.379,3.613,1.379,4.992,0c0.178-0.178,0.332-0.369,0.464-0.572
		c0.149,0.314,0.354,0.613,0.618,0.879c1.105,1.105,2.801,1.205,3.785,0.221s0.885-2.678-0.222-3.783
		C8710.575,80.479,8710.277,80.273,8709.963,80.127z M8702.715,75.85h-42.33V21.273h42.33V75.85L8702.715,75.85z"/>
</g>
<g>
</g>
<g>
	<rect x="8563.385" y="21.295" fill="none" width="21.1" height="54.576"/>
	<path fill="#F3F2F1" d="M8565.385,73.871V23.295h19.1V12.464c-2.411,0.004-4.494-0.066-5.503,1.286
		c-0.514-0.589-1.27,0.039-2.112,0.039c-1.181,0-2.188-0.27-2.602,0.764c-4.893-0.646-7.418-0.373-8.854,0.14
		c-0.159-0.298-0.279-0.713-0.614-0.831c-2.175-0.768-3.175-0.486-4.995,0c-0.242,0.064-0.332,0.369-0.463,0.572
		c-0.148-0.314-0.299-0.684-0.619-0.879c-1.566-0.961-1.8-0.205-2.785,0.779c-0.983,0.985-1.219,1.322-0.777,2.785
		c0.108,0.358,0.562,0.471,0.878,0.619c-0.202,0.133-0.485,0.229-0.574,0.465c-0.683,1.797-0.651,2.984,0,4.994
		c0.144,0.444,0.708,0.58,1.115,0.752c-0.581,2.416-1.22,7.361,0.694,14.162c-1.322,0.227-1.605,0.961-1.605,2.348
		c0,0.844-0.354,2.01,0.237,2.523c-1.357,1.012-1.405,2.729-1.405,5.143c0,2.418,0.049,4.883,1.405,5.895
		c-0.589,0.514-0.28,1.387-0.28,2.23c0,1.387,0.325,2.418,1.648,2.643c-1.148,8.232-1.071,12.982-0.48,14.967
		c-0.483,0.168-1.175,0.307-1.329,0.832c-0.714,2.434-0.464,2.809,0,4.992c0.053,0.246,0.372,0.332,0.571,0.465
		c-0.314,0.148-0.611,0.355-0.876,0.619c-1.106,1.105-0.394,1.75,0.591,2.732c0.984,0.986,1.865,1.936,2.971,0.83
		c0.266-0.264,0.471-0.562,0.62-0.877c0.131,0.201,0.229,0.486,0.464,0.57c1.695,0.602,2.19,1.23,3.57-0.148
		c0.463-0.461,2.19-0.873,2.341-1.465c1.543,0.496,4.5,1.053,8.55,0.037c0.415,1.035,1.178,1.178,2.359,1.178
		c0.843,0,1.84,0.215,2.354-0.373c1.012,1.353,3.097,1.245,5.506,1.248V73.871H8565.385z"/>
	<path fill="#EBEAE8" d="M8584.484,84.5c2.418,0,4.521,0.107,5.533-1.248c0.514,0.59,1.27,0.961,2.111,0.961
		c1.182,0,2.189-0.729,2.604-1.764c4.051,1.014,7.008,0.459,8.55-0.037c0.151,0.592,0.27,1.532,0.919,1.613
		c1.799,0.225,3.424,0.225,4.992,0c0.249-0.035,0.332-0.369,0.464-0.572c0.149,0.314,0.354,0.613,0.618,0.879
		c1.105,1.105,1.241,0.027,2.225-0.957c0.984-0.984,2.445-1.5,1.339-2.605c-0.264-0.27-0.562-0.475-0.876-0.621
		c0.201-0.133,0.575-0.214,0.571-0.465c-0.034-2.434-0.159-2.809,0-4.992c0.04-0.548-0.845-0.664-1.329-0.834
		c0.591-1.982,1.678-7.295-0.479-14.965c1.322-0.225,1.273-0.881,1.273-2.268c0-0.844,0.684-2.092,0.094-2.605
		c1.355-1.01,1.156-3.102,1.156-5.52c0-2.416,0.199-4.508-1.156-5.518c0.59-0.516,0.826-1.215,0.281-1.857
		c-1.057-1.244-0.326-2.789-1.648-3.016c0.898-8.109,1.276-11.748,0.693-14.164c0.406-0.17,1.03-0.29,1.115-0.749
		c0.34-1.821,0.34-2.946,0-4.994c-0.041-0.247-0.369-0.333-0.571-0.464c0.313-0.148,0.612-0.354,0.878-0.619
		c1.107-1.105,0.143-2.135-0.842-3.119c-0.983-0.984-1.615-1.551-2.721-0.445c-0.264,0.265-0.47,0.563-0.619,0.878
		c-0.133-0.203-0.237-0.465-0.465-0.573c-2.57-1.234-2.82-0.484-4.992,0c-0.348,0.078-0.453,0.533-0.615,0.832
		c-1.436-0.512-4.463-0.441-8.852-0.14c-0.416-1.032-1.432-1.177-2.611-1.177c-0.846,0-1.588-0.215-2.104,0.375
		c-0.562-0.75-4.209-0.938-5.521-1.287c-0.005-0.002,0.004,0.662,0,0.662l-0.016,10.17h19.23v50.576h-19.23"/>
</g>
<g>
</g>
<rect x="8466.385" y="21.295" fill="none" width="21.1" height="54.576"/>
<g>
	<polygon fill="#009640" points="8487.496,14.937 8487.484,14.937 8487.484,25.295 	"/>
	<path fill="#F3F2F1" d="M8481.981,13.75c-0.514-0.589-1.27,0.039-2.112,0.039c-1.181,0-2.188-0.27-2.602,0.764
		c-4.893-0.646-7.418-0.373-8.854,0.14c-0.159-0.298-0.279,0.287-0.614,0.169c-2.175-0.768-3.175-0.486-4.995,0
		c-0.242,0.064-0.332-0.631-0.463-0.428c-0.148-0.314-0.299,0.316-0.619,0.121c-1.566-0.961-0.8-0.205-1.785,0.779
		c-0.983,0.985-1.219,0.322-0.777,1.785c0.108,0.358-0.438,0.471-0.122,0.619c-0.202,0.133,0.515,0.229,0.426,0.465
		c-0.683,1.797-0.651,1.984,0,3.994c0.144,0.444,0.708,1.58,1.115,1.752c-0.185,2.946-0.329,6.426,0.694,14.162
		c-1.322,0.227-1.605,0.961-1.605,2.348c0,0.844-0.354,2.01,0.237,2.523c-1.357,1.012-1.405,2.729-1.405,5.143
		c0,2.418,0.209,3.583,0.405,5.895c-0.589,0.514,0.72,1.387,0.72,2.23c0,1.387,0.325,2.418,1.648,2.643
		c-1.148,8.232-0.48,12.42-0.48,14.967c-0.483,0.168-1.175,0.307-1.329,0.832c-0.714,2.434-0.464,2.809,0,4.992
		c0.053,0.246-0.628,0.332-0.429,0.465c-0.314,0.148,0.389,0.355,0.124,0.619c-1.106,1.105-0.394,0.75,0.591,1.732
		c0.984,0.986,0.865,1.936,1.971,0.83c0.266-0.264,0.471,0.438,0.62,0.123c0.131,0.201,0.229-0.514,0.464-0.43
		c1.695,0.602,1.633,0.456,3.57-0.148c0.625-0.194,2.19,0.127,2.341-0.465c1.543,0.496,4.179,0.693,8.55,0.037
		c0.415,1.035,1.178,0.178,2.359,0.178c0.843,0,1.84,0.215,2.354-0.373c1.012,1.353,3.097,1.245,5.506,1.248v-1.437V68.871h-15.1
		V28.295h15.1V14.937v-1.473C8485.073,13.468,8482.99,12.397,8481.981,13.75z"/>
	<path fill="#EBEAE8" d="M8516.25,48.5c0-2.416-0.625-3.812-1.156-5.518c0.59-0.516,0.826-1.215,0.281-1.857
		c-1.057-1.244,0.674-2.789-0.648-3.016c0.898-8.109,0.276-11.748-0.307-14.164c0.406-0.17,1.03-0.29,1.115-0.749
		c0.34-1.821,0.34-2.946,0-4.994c-0.041-0.247,0.631-0.333,0.429-0.464c0.313-0.148-0.388-0.354-0.122-0.619
		c1.107-1.105,0.143-1.135-0.842-2.119c-0.983-0.984-0.615-1.551-1.721-0.445c-0.264,0.265-0.47-0.437-0.619-0.122
		c-0.133-0.203-0.237,0.535-0.465,0.427c-2.57-1.234-2.82-0.484-4.992,0c-0.348,0.078-0.453-0.467-0.615-0.168
		c-1.436-0.512-4.463-0.441-8.852-0.14c-0.416-1.032-1.432-1.177-2.611-1.177c-0.846,0-1.588-0.215-2.104,0.375
		c-0.562-0.75-4.209,0.062-5.521-0.287c0,0,0-0.012,0-0.015l-0.004,1.488l-0.012,13.358h14.23v40.576h-14.23v13.192V83.5
		c2.418,0,3.785-0.167,5.533-1.248c0.514,0.59,1.27,0.961,2.111,0.961c1.182,0,2.189,0.271,2.604-0.764
		c4.051,1.014,7.008,0.459,8.55-0.037c0.151,0.592,0.27,0.532,0.919,0.613c1.799,0.225,2.424,0.225,3.992,0
		c0.249-0.035,1.332,0.631,1.464,0.428c0.149,0.314,0.354-0.387,0.618-0.121c1.105,1.105,0.241,0.027,1.225-0.957
		c0.984-0.984,0.521-0.417,0.339-1.605c-0.057-0.373,1.438-0.475,1.124-0.621c0.201-0.133-0.425-0.214-0.429-0.465
		c-0.034-2.434-0.159-2.809,0-4.992c0.04-0.548-0.845-0.664-1.329-0.834c0.591-1.982-0.08-7.045-0.479-14.965
		c1.322-0.225,1.273-0.881,1.273-2.268c0-0.844,0.684-2.092,0.094-2.605C8516.449,53.01,8516.25,50.918,8516.25,48.5z"/>
</g>
<g>
</g>
<rect x="8369.385" y="21.295" fill="none" width="21.1" height="54.576"/>
<g>
	<path fill="#51C1E2" d="M8390.484,14.464c-2.411,0.004-4.494-1.066-5.503,0.286c-0.514-0.589-1.27,0.039-2.112,0.039
		c-0.821,0-1.555-0.121-2.065,0.147h9.681V14.464z"/>
	<path fill="#51C1E2" d="M8364.188,83.136C8364.178,83.217,8364.203,83.212,8364.188,83.136L8364.188,83.136z"/>
	<path fill="#24B2DA" d="M8390.484,82.5"/>
	<polygon fill="#009640" points="8390.496,14.937 8390.484,14.937 8390.484,25.295 	"/>
	<path fill="#009640" d="M8365.677,82.063h0.246c-0.043-0.015-0.074-0.024-0.118-0.04
		C8365.756,82.006,8365.713,82.027,8365.677,82.063z"/>
	<path fill="#F3F2F1" d="M8390.484,31.295V14.937h-9.681h-9.886c-0.041-0.026-0.073-0.06-0.118-0.075
		c-2.175-0.768-3.175-0.486-4.995,0c-0.242,0.064-0.332-0.631-0.463-0.428c-0.148-0.314-0.413-0.191-0.619,0.121
		c-0.848,1.289,0.2,0.795-0.785,1.779c-0.983,0.985-0.5,0.197-0.777,1.785c-0.064,0.369-0.162,0.232,0.152,0.381
		c-0.204,0.133,0.24,0.467,0.151,0.703c-0.683,1.797,0.38,0.766,0,2.994c-0.079,0.461,0.709,1.58,1.115,1.752
		c-0.185,2.946-1.329,6.426-0.306,14.162c-1.322,0.227-0.605,1.961-0.605,3.348c0,0.844-0.354,2.01,0.237,2.523
		c-1.357,1.012-0.405,1.729-0.405,4.143c0,2.418-0.791,3.583-0.595,5.895c-0.589,0.514,0.72,1.387,0.72,2.23
		c0,1.387,0.325,2.418,1.648,2.643c-1.148,8.232-0.48,12.42-0.48,14.967c-0.483,0.168-1.295,0.285-1.329,0.832
		c-0.151,2.434-0.464,2.809,0,4.992c0.053,0.246-0.628,0.332-0.429,0.465c-0.314,0.148,0.389,0.355,0.124,0.619
		c-1.106,1.105-0.394,0.75,0.591,1.732c0.336,0.335,0.418,0.541,0.438,0.636c0.013-0.113,0.107-0.379,0.532-0.806
		c0.266-0.264,0.471,0.438,0.62,0.123c0.103,0.159,0.187-0.253,0.336-0.39c0.036-0.036,0.079-0.058,0.128-0.04
		c0.044,0.016,0.075,0.025,0.118,0.04c1.378,0.483,1.551,0.425,2.862,0h17.267c1.12,0.482,2.687,0.435,4.433,0.437v-0.437V65.871
		h-11.1V31.295H8390.484z"/>
	<path fill="#E4E2DE" d="M8417.842,17.119c1.107-1.105,0.611-0.541-0.373-1.525c-0.983-0.984-0.281-1.5-1.189-1.039
		c-0.333,0.169-0.47-0.437-0.619-0.122c-0.133-0.203-0.237,0.535-0.465,0.427c-2.57-1.234-2.82-0.484-4.992,0
		c-0.348,0.078-0.453-0.467-0.615-0.168c-0.828-0.295-2.203-0.061-4.044,0.245h-6.167c-0.346-0.2-0.625-0.343-1.252-0.343
		c-0.846,0-1.588-0.434-2.104,0.156c-0.562-0.75-4.209,0.062-5.521-0.287l-0.004,0.474l-0.012,16.358h11.23v34.576h-11.23v16.192
		V82.5c1.592,0,2.728-0.078,3.816-0.437h20.025c0.377,0.136,1.217,0.566,1.331,0.39c0.149,0.314,0.248-0.068,0.618-0.121
		c1.225-0.176,0.116,0.684,1.1-0.301c0.984-0.984-0.354-0.073-0.536-1.262c-0.057-0.373,0.438-0.475,0.124-0.621
		c0.201-0.133,0.575-0.214,0.571-0.465c-0.034-2.434-0.881-1.75-0.722-3.934c0.04-0.548-0.123-1.723-0.607-1.893
		c0.591-1.982-0.08-7.045-0.479-14.965c1.322-0.225,1.273-0.881,1.273-2.268c0-0.844,0.684-2.092,0.094-2.605
		c1.355-1.01,0.156-3.102,0.156-5.52c0-2.416,0.375-3.812-0.156-5.518c0.59-0.516,0.826-1.215,0.281-1.857
		c-1.057-1.244,0.674-2.789-0.648-3.016c0.898-8.109,0.276-11.748-0.307-14.164c0.406-0.17,0.523-1.291,0.518-1.758
		c-0.031-2.219,0.531-1.938,0.598-3.985c0.009-0.25,0.631-0.333,0.429-0.464C8418.277,17.59,8417.576,17.385,8417.842,17.119z"/>
</g>
<g>
</g>
<rect x="8272.385" y="21.295" fill="none" width="21.1" height="54.576"/>
<g>
	<path fill="#24B2DA" d="M8319.817,81.172C8319.885,81.13,8319.902,81.102,8319.817,81.172L8319.817,81.172z"/>
	<line fill="#24B2DA" x1="8293.496" y1="14.937" x2="8293.5" y2="14.937"/>
	<path fill="#F3F2F1" d="M8271.307,14.937c-0.8-0.247-1.537-0.333-2.502-0.075c-0.242,0.064-0.236-0.314-0.367-0.111
		c-0.148-0.314-0.138-0.188-0.344,0.125c-0.85,1.289,0.829,0.475-0.156,1.459c-0.983,0.985,0.5,0.197,0.223,1.785
		c-0.064,0.369-0.631,0.482-0.316,0.631c-0.203,0.133,0.121,0.576,0.031,0.812c-0.684,1.797,0.349,0.49-0.031,2.719
		c-0.079,0.461-0.281,2.172,0.125,2.344c-0.183,2.946-0.344,4.656,0.062,13.531c-0.531,1.406-0.219,2.145-0.219,3.531
		c0,0.844-0.34,2.236,0.25,2.75c-0.5,1.969-0.469,1.648-0.469,4.062c0,2.418-0.634,2.876-0.438,5.188
		c-0.59,0.514,0.312,2.156,0.312,3c0,1.09,0.118,1.676,0.808,1.986v15.247c-0.414,0.229-0.817,0.545-0.839,0.892
		c-0.151,2.434-0.651,2.535-0.188,4.719c0.051,0.246-0.233,0.398-0.031,0.531c-0.314,0.148-0.206,0.379-0.156,0.75
		c0.062,0.469,0,0.656,0.312,0.719c0.362,0.072,0.331-0.064,0.901-0.3v0.832h25.206c0-0.338,0-0.563,0.002-0.563V63.871h-9.1V33.295
		h9.1v-8l0.012-10.358H8271.307z"/>
	<path fill="#E4E2DE" d="M8319.842,17.119c0.049-0.604-0.326-0.604-0.357-1.275c-0.013-0.287-0.047-0.188-0.205-0.289
		c-0.109-0.07-0.32-0.143-0.557-0.196v-0.422h-0.534c0.056-0.042,0.073-0.071,0.007-0.077c-1.219-0.102-1.918-0.051-2.438,0.077
		H8293.5h-0.004l-0.012,18.358h9.23v30.576h-9.23V81.5v0.563h25.238v-0.302c0.671,0.02-0.129,0.613,0.746-0.262
		c0.18-0.18,0.289-0.278,0.349-0.328c-0.146,0.092-0.528,0.241-0.63-0.422c-0.059-0.373,0.471-0.697,0.156-0.844
		c0.201-0.133,0.096-0.405,0.094-0.656c-0.035-2.434-0.628-1.566-0.469-3.75c0.022-0.311-0.074-0.738-0.246-1.085V58.421
		c0.293-0.37,0.277-0.944,0.277-1.796c0-0.844,0.684-2.092,0.094-2.605c1.355-1.01,0.156-3.102,0.156-5.52
		c0-2.416,0.375-3.812-0.156-5.518c0.59-0.516,0.826-1.215,0.281-1.857c-1.057-1.244,0.674-2.789-0.648-3.016
		c0.74-6.682,0.447-10.325-0.004-12.754V23.54c0.162-0.417,0.22-1.034,0.215-1.353c-0.031-2.219,0.531-1.938,0.598-3.985
		c0.009-0.25,0.631-0.333,0.429-0.464C8320.277,17.59,8319.811,17.494,8319.842,17.119z"/>
	<path fill="#009640" d="M8293.482,82.063h0.002V81.5C8293.482,81.5,8293.482,81.726,8293.482,82.063z"/>
</g>
<g>
</g>
<rect x="706.385" y="21.295" fill="none" width="21.1" height="54.576"/>
<g>
	<path fill="#F3F2F1" d="M705.308,14.937h-3.031v43.737v15.247v7.311v0.832h25.206c0-0.338,0-0.563,0.001-0.563V61.871h-7.1V35.295
		h7.1v-10l0.013-10.358H705.308z"/>
	<path fill="#009640" d="M727.483,82.063h0.001V81.5C727.483,81.5,727.483,81.726,727.483,82.063z"/>
	<polygon fill="#E4E2DE" points="752.188,14.937 749.759,14.937 727.499,14.937 727.498,14.937 727.484,35.295 734.715,35.295
		734.715,61.871 727.484,61.871 727.484,81.5 727.484,82.063 752.723,82.063 752.723,81.762 752.723,74.415 752.723,58.421
		752.723,25.356 752.723,23.54 752.723,15.358 752.723,14.937 	"/>
</g>
<rect x="7787.385" y="21.295" fill="none" width="21.1" height="54.576"/>
<g>
</g>
<rect x="803.385" y="21.296" fill="none" width="21.1" height="54.576"/>
<g>
	<path fill="#F3F2F1" d="M803.999,13.878l-3.027-0.15l-2.168,43.684l-0.756,15.228l-0.362,7.302l-0.042,0.831l25.175,1.25
		c0.017-0.338,0.028-0.562,0.029-0.562l1.072-21.603l-5.093-0.253l1.12-22.548l5.093,0.253l0.595-11.985l0.527-10.345
		L803.999,13.878z"/>
	<path fill="#009640" d="M822.819,82.022h0.001l0.028-0.562C822.847,81.46,822.835,81.685,822.819,82.022z"/>
	<polygon fill="#E4E2DE" points="850.822,16.203 848.396,16.083 826.163,14.979 826.162,14.979 825.04,37.309 830.264,37.568
		829.145,60.116 823.92,59.857 822.848,81.46 822.82,82.022 848.028,83.273 848.043,82.973 848.407,75.635 849.2,59.66
		850.84,26.636 850.93,24.822 851.335,16.651 851.356,16.229 	"/>
</g>
<g>
</g>
<rect x="900.385" y="21.295" fill="none" width="21.1" height="54.576"/>
<g>
	<path fill="#F3F2F1" d="M904.09,12.225l-3.002-0.413l-5.962,43.329l-2.079,15.104l-0.996,7.242l-0.114,0.824l24.971,3.437
		c0.046-0.335,0.077-0.558,0.078-0.558l2.948-21.428l-5.052-0.695l3.078-22.365l5.052,0.695l1.635-11.888l1.425-10.26L904.09,12.225
		z"/>
	<path fill="#009640" d="M916.908,81.748h0.001l0.077-0.558C916.985,81.19,916.954,81.413,916.908,81.748z"/>
	<polygon fill="#DCD9D5" points="950.533,18.615 948.126,18.284 926.074,15.25 926.073,15.25 923.012,37.397 928.194,38.11
		925.116,60.476 919.935,59.763 916.986,81.19 916.91,81.748 941.913,85.188 941.954,84.89 942.955,77.611 945.135,61.767
		949.643,29.01 949.89,27.211 951.005,19.106 951.063,18.688 	"/>
</g>
<g>
</g>
<rect x="997.385" y="21.295" fill="none" width="21.1" height="54.576"/>
<g>
	<path fill="#F3F2F1" d="M1006.735,10.021l-2.906-0.859l-12.402,41.942l-4.324,14.621l-2.073,7.01l-0.236,0.798l24.172,7.148
		c0.096-0.324,0.16-0.54,0.161-0.54l6.133-22.742l-2.891-1.446l5.402-16.649l2.891,0.446l4.402-13.508l2.95-9.929L1006.735,10.021z"
		/>
	<path fill="#009640" d="M1008.967,80.682h0.001l0.16-0.54C1009.127,80.142,1009.062,80.357,1008.967,80.682z"/>
	<polygon fill="#DCD9D5" points="1051.692,23.314 1049.362,22.625 1028.016,16.313 1028.015,16.313 1020.663,39.75 1023.678,41.233
		1018.277,58.883 1015.261,57.399 1009.128,80.142 1008.968,80.682 1033.171,87.838 1033.256,87.549 1035.34,80.503
		1039.875,65.166 1049.25,33.457 1049.766,31.716 1052.085,23.871 1052.205,23.466 	"/>
</g>
<g>
</g>
<rect x="1094.385" y="21.295" fill="none" width="21.1" height="54.576"/>
<g>
	<path fill="#F3F2F1" d="M1109.564,8.703l-2.747-1.28l-18.477,39.643l-6.442,13.819l-3.088,6.626l-0.352,0.754l22.847,10.649
		c0.143-0.307,0.238-0.511,0.239-0.511l9.434-21.583l-0.645-2.858l6.808-12.665l1.792-1.131l6.354-12.707l4.388-9.383
		L1109.564,8.703z"/>
	<path fill="#009640" d="M1101.306,78.915h0.001l0.238-0.511C1101.544,78.404,1101.448,78.608,1101.306,78.915z"/>
	<polygon fill="#D4D1CC" points="1152.057,28.507 1149.854,27.481 1129.678,18.078 1129.677,18.078 1118.935,40.167
		1118.697,43.081 1112.742,55.735 1110.979,56.821 1101.545,78.404 1101.307,78.915 1124.184,89.577 1124.311,89.304
		1127.415,82.644 1134.171,68.147 1148.139,38.177 1148.907,36.531 1152.362,29.116 1152.541,28.733 	"/>
</g>
<g>
</g>
<rect x="1191.385" y="21.295" fill="none" width="21.1" height="54.576"/>
<g>
	<path fill="#F3F2F1" d="M1217.042,40.715l8.034-11.717l5.63-8.694l-18.64-12.039l-2.547-1.644l-23.727,36.742l-8.272,12.808
		l-3.965,6.141l-0.452,0.699l21.173,13.676c0.183-0.284,0.306-0.474,0.308-0.474l12.299-20.089"/>
	<path fill="#009640" d="M1194.276,76.687h0.002l0.306-0.474C1194.582,76.213,1194.459,76.402,1194.276,76.687z"/>
	<polygon fill="#D4D1CC" points="1206.883,56.124 1194.584,76.213 1194.278,76.687 1215.48,90.379 1215.644,90.125 1219.629,83.953
		1228.306,70.518 1246.244,42.741 1247.229,41.215 1251.667,34.343 1251.897,33.988 1251.448,33.698 1249.406,32.38
		1230.707,20.304 1230.706,20.304 1217.042,40.715 	"/>
</g>
<g>
</g>
<rect x="1288.385" y="21.296" fill="none" width="21.1" height="54.576"/>
<g>
	<path fill="#F3F2F1" d="M1314.581,41.057l8.844-11.119l6.231-8.274l-17.741-13.328l-2.424-1.82l-26.268,34.97l-9.159,12.19
		l-4.39,5.845l-0.501,0.665l20.152,15.141c0.203-0.271,0.339-0.451,0.341-0.451l13.69-19.168"/>
	<path fill="#009640" d="M1289.326,75.327h0.002l0.339-0.451C1289.665,74.876,1289.529,75.057,1289.326,75.327z"/>
	<polygon fill="#D4D1CC" points="1303.357,55.708 1289.667,74.876 1289.328,75.327 1309.509,90.485 1309.689,90.244
		1314.102,84.369 1323.707,71.582 1343.567,45.145 1344.658,43.693 1349.57,37.151 1349.826,36.814 1349.398,36.493
		1347.454,35.034 1329.657,21.665 1329.656,21.664 1314.581,41.057 	"/>
</g>
<g>
</g>
<rect x="1385.385" y="21.295" fill="none" width="21.1" height="54.576"/>
<g>
	<polygon fill="#F3F2F1" points="1406.491,7.516 1368.174,61.186 1388.146,75.93 1425.719,21.958 	"/>
	<polygon fill="#51C1E2" points="1446.826,37.814 1446.826,37.813 1446.376,37.476 1446.398,37.493 	"/>
	<polygon fill="#D4D1CC" points="1446.826,37.814 1446.398,37.493 1446.376,37.476 1425.719,21.958 1388.146,75.93 1406.509,89.484
			"/>
</g>
<g>
</g>
<rect x="1482.385" y="21.297" fill="none" width="21.1" height="54.576"/>
<g>
	<polygon fill="#F3F2F1" points="1503.491,9.518 1466.174,62.188 1486.78,76.15 1519.979,21.903 	"/>
	<polygon fill="#D4D1CC" points="1543.826,39.815 1519.979,21.903 1486.78,76.15 1503.509,87.486 	"/>
</g>
<g>
</g>
<rect x="1579.385" y="21.295" fill="none" width="21.1" height="54.576"/>
<g>
	<polygon fill="#F3F2F1" points="1600.491,10.516 1564.174,64.186 1585.766,77.437 1614.385,21.859 	"/>
	<polygon fill="#D4D1CC" points="1638.826,41.813 1614.385,21.859 1585.766,77.437 1600.509,86.484 	"/>
</g>
<g>
</g>
<rect x="1676.385" y="21.297" fill="none" width="21.1" height="54.576"/>
<g>
	<polygon fill="#F3F2F1" points="1697.484,11.514 1662.174,64.188 1685.023,78.032 1708.197,21.036 	"/>
	<polygon fill="#D4D1CC" points="1733.826,43.815 1708.197,21.036 1685.023,78.032 1697.484,85.583 	"/>
</g>
<g>
</g>
<rect x="1773.385" y="21.297" fill="none" width="21.1" height="54.576"/>
<g>
	<polygon fill="#F3F2F1" points="1794.484,11.514 1761.195,64.922 1784.4,79.324 1802.962,20.475 	"/>
	<polygon fill="#D4D1CC" points="1828.826,47.815 1802.962,20.475 1784.4,79.324 1794.484,85.583 	"/>
</g>
<g>
</g>
<rect x="1870.385" y="21.295" fill="none" width="21.1" height="54.576"/>
<g>
	<polygon fill="#F3F2F1" points="1891.484,11.512 1859.195,64.92 1883.266,80.322 1898.104,19.557 	"/>
	<polygon fill="#D4D1CC" points="1923.826,50.813 1898.104,19.557 1883.266,80.322 1891.484,85.581 	"/>
</g>
<g>
</g>
<rect x="1967.385" y="21.295" fill="none" width="21.1" height="54.576"/>
<g>
	<polygon fill="#F3F2F1" points="1988.484,11.512 1957.195,64.92 1982.198,81.431 1993.022,17.637 	"/>
	<polygon fill="#D4D1CC" points="2019.826,53.813 1993.022,17.637 1982.198,81.431 1988.484,85.581 	"/>
</g>
<g>
</g>
<rect x="2064.385" y="21.297" fill="none" width="21.1" height="54.576"/>
<g>
	<polygon fill="#F3F2F1" points="2085.484,11.514 2054.667,64.922 2080.979,82.562 2088.122,15.415 	"/>
	<polygon fill="#D4D1CC" points="2116.344,57.156 2088.122,15.415 2080.979,82.562 2085.484,85.583 	"/>
</g>
<g>
</g>
<rect x="2161.385" y="21.295" fill="none" width="21.1" height="54.576"/>
<g>
	<polygon fill="#F3F2F1" points="2182.484,11.512 2151.667,64.92 2180.292,84.111 2183.631,13.394 	"/>
	<polygon fill="#D4D1CC" points="2213.344,62.154 2183.631,13.394 2180.292,84.111 2182.484,85.581 	"/>
</g>
<g>
	<g id="Cover">
		<g>
			<path fill="#F3F2F1" d="M4444.307,16.264c0-2.623-2.126-4.75-4.75-4.75l-52.135-0.014c-2.623,0-4.75,2.127-4.75,4.75
				l0.294,64.598c0,2.622,2.127,4.749,4.75,4.749l51.878-0.019c2.624,0,4.75-2.127,4.75-4.749L4444.307,16.264z"/>
		</g>
	</g>
</g>
<g id="Bookmark">
	<g>
		<polygon fill="#96A49E" points="4420.655,11.509 4420.655,28.134 4427.78,25.759 4434.905,28.134 4434.905,11.509 		"/>
	</g>
</g>
<g>
	<polygon fill="none" points="3941.999,11.385 3943.562,11.386 3942.78,11.125 	"/>
	<polygon fill="#96A49E" points="3949.905,13.5 3949.905,11.388 3943.562,11.386 	"/>
	<polygon fill="#96A49E" points="3941.999,11.385 3935.655,11.384 3935.655,13.5 	"/>
</g>
<polygon fill="#96A49E" points="4032.655,11.5 4032.655,16.625 4039.78,14.25 4046.905,16.625 4046.905,11.5 "/>
<polygon fill="#96A49E" points="4136.78,17.25 4143.905,19.625 4143.905,11.513 4129.655,11.509 4129.655,19.625 "/>
<g>
	<polygon fill="#96A49E" points="4233.78,20.25 4240.905,22.625 4240.905,11.513 4226.655,11.509 4226.655,22.625 	"/>
</g>
<g>
	<polygon fill="#96A49E" points="4330.78,23.25 4337.905,25.625 4337.905,11.513 4323.655,11.509 4323.655,25.625 	"/>
</g>
<rect x="4113.831" y="36.881" fill="#676767" width="17.348" height="3.336"/>
<rect x="4298.755" y="35.135" fill="#676767" width="35.5" height="6.828"/>
<rect x="4019" y="37.298" fill="#676767" width="13.01" height="2.502"/>
<rect x="4394.008" y="34.799" fill="#676767" width="39" height="7.5"/>
<rect x="4404.734" y="49.729" fill="#777777" width="17.547" height="2.59"/>
<g>
</g>
<g>
	<g id="Cover_14_">
		<g>
			<path fill="#F3F2F1" d="M4541.307,16.264c0-2.623-2.126-4.75-4.75-4.75l-52.135-0.014c-2.623,0-4.75,2.127-4.75,4.75
				l0.294,64.598c0,2.621,2.127,4.748,4.75,4.748l51.878-0.018c2.623,0,4.75-2.127,4.75-4.75L4541.307,16.264z"/>
		</g>
	</g>
</g>
<g id="Bookmark_2_">
	<g>
		<polygon fill="#96A49E" points="4517.655,11.509 4517.655,28.134 4524.78,25.759 4531.905,28.134 4531.905,11.509 		"/>
	</g>
</g>
<rect x="4491.008" y="34.799" fill="#676767" width="39" height="7.5"/>
<rect x="4501.734" y="49.729" fill="#777777" width="17.547" height="2.59"/>
<g>
</g>
<g>
	<g id="Cover_16_">
		<g>
			<path fill="#F3F2F1" d="M4638.307,16.264c0-2.623-2.126-4.75-4.75-4.75l-52.135-0.014c-2.623,0-4.75,2.127-4.75,4.75
				l0.293,64.598c0,2.621,2.128,4.748,4.751,4.748l51.878-0.018c2.623,0,4.75-2.127,4.75-4.75L4638.307,16.264z"/>
		</g>
	</g>
</g>
<g id="Bookmark_4_">
	<g>
		<polygon fill="#96A49E" points="4614.655,11.509 4614.655,28.134 4621.78,25.759 4628.905,28.134 4628.905,11.509 		"/>
	</g>
</g>
<rect x="4588.008" y="34.799" fill="#676767" width="39" height="7.5"/>
<rect x="4598.734" y="49.729" fill="#777777" width="17.547" height="2.59"/>
<g>
</g>
<g>
	<g id="Cover_18_">
		<g>
			<path fill="#F3F2F1" d="M4735.307,16.264c0-2.623-2.126-4.75-4.75-4.75l-52.135-0.014c-2.623,0-4.75,2.127-4.75,4.75
				l0.293,64.598c0,2.621,2.128,4.748,4.751,4.748l51.878-0.018c2.623,0,4.75-2.127,4.75-4.75L4735.307,16.264z"/>
		</g>
	</g>
</g>
<g id="Bookmark_6_">
	<g>
		<polygon fill="#96A49E" points="4711.655,11.509 4711.655,28.134 4718.78,25.759 4725.905,28.134 4725.905,11.509 		"/>
	</g>
</g>
<rect x="4685.008" y="34.799" fill="#676767" width="39" height="7.5"/>
<rect x="4695.734" y="49.729" fill="#777777" width="17.547" height="2.59"/>
<rect x="4206.379" y="36.024" fill="#676767" width="26.252" height="5.049"/>
<g>
</g>
<g>
</g>
<g>
	<g id="Cover_30_">
		<g>
			<path fill="#F3F2F1" d="M5317.333,58.297l-1-7.172l-0.029-34.861c0-2.623-2.126-4.75-4.75-4.75h-24.069l-0.021,6.98h-1.969
				l-0.01-6.98l-24.066-0.014c-2.622,0-4.75,2.127-4.75,4.75l-0.002,34.875l-1,7.172l-0.01,22.562c0,2.622,2.127,4.749,4.75,4.749
				l52.185-0.03c2.624,0,4.75-2.127,4.75-4.749L5317.333,58.297z"/>
		</g>
	</g>
</g>
<g>
</g>
<g>
	<g id="Cover_28_">
		<g>
			<path fill="#F3F2F1" d="M5220.304,16.264c0-2.623-2.126-4.75-4.75-4.75l-52.136-0.014c-2.622,0-4.75,2.127-4.75,4.75
				l0.295,64.598c0,2.622,2.127,4.749,4.75,4.749l51.878-0.019c2.624,0,4.75-2.127,4.75-4.749L5220.304,16.264z"/>
		</g>
	</g>
</g>
<g>
</g>
<g>
	<g id="Cover_26_">
		<g>
			<path fill="#F3F2F1" d="M5123.304,16.264c0-2.623-2.126-4.75-4.75-4.75l-52.136-0.014c-2.622,0-4.75,2.127-4.75,4.75
				l0.295,64.598c0,2.622,2.127,4.749,4.75,4.749l51.878-0.019c2.624,0,4.75-2.127,4.75-4.749L5123.304,16.264z"/>
		</g>
	</g>
</g>
<g>
</g>
<g>
	<g id="Cover_24_">
		<g>
			<path fill="#F3F2F1" d="M5026.307,16.264c0-2.623-2.126-4.75-4.75-4.75l-52.135-0.014c-2.623,0-4.75,2.127-4.75,4.75
				l0.293,64.598c0,2.622,2.128,4.749,4.751,4.749l51.878-0.019c2.623,0,4.75-2.127,4.75-4.749L5026.307,16.264z"/>
		</g>
	</g>
</g>
<g id="Bookmark_12_">
	<g>
		<polygon fill="#96A49E" points="5002.655,11.509 5002.655,28.134 5009.78,25.759 5016.905,28.134 5016.905,11.509 		"/>
	</g>
</g>
<polygon fill="#96A49E" points="5300.78,17.25 5307.905,19.625 5307.905,11.513 5293.655,11.509 5293.655,19.625 "/>
<g>
	<polygon fill="#96A49E" points="5203.78,20.25 5210.905,22.625 5210.905,11.513 5196.655,11.509 5196.655,22.625 	"/>
</g>
<g>
	<polygon fill="#96A49E" points="5106.78,23.25 5113.905,25.625 5113.905,11.513 5099.655,11.509 5099.655,25.625 	"/>
</g>
<rect x="5277.831" y="36.881" fill="#676767" width="17.348" height="3.336"/>
<rect x="5074.755" y="35.135" fill="#676767" width="35.5" height="6.828"/>
<rect x="4976.008" y="34.799" fill="#676767" width="39" height="7.5"/>
<rect x="4986.734" y="49.729" fill="#777777" width="17.547" height="2.59"/>
<g>
</g>
<g>
	<g id="Cover_22_">
		<g>
			<path fill="#F3F2F1" d="M4929.307,16.264c0-2.623-2.126-4.75-4.75-4.75l-52.135-0.014c-2.623,0-4.75,2.127-4.75,4.75
				l0.293,64.598c0,2.621,2.128,4.748,4.751,4.748l51.878-0.018c2.623,0,4.75-2.127,4.75-4.75L4929.307,16.264z"/>
		</g>
	</g>
</g>
<g id="Bookmark_10_">
	<g>
		<polygon fill="#96A49E" points="4905.655,11.509 4905.655,28.134 4912.78,25.759 4919.905,28.134 4919.905,11.509 		"/>
	</g>
</g>
<rect x="4879.008" y="34.799" fill="#676767" width="39" height="7.5"/>
<rect x="4889.734" y="49.729" fill="#777777" width="17.547" height="2.59"/>
<g>
</g>
<g>
	<g id="Cover_20_">
		<g>
			<path fill="#F3F2F1" d="M4832.307,16.264c0-2.623-2.126-4.75-4.75-4.75l-52.135-0.014c-2.623,0-4.75,2.127-4.75,4.75
				l0.293,64.598c0,2.621,2.128,4.748,4.751,4.748l51.878-0.018c2.623,0,4.75-2.127,4.75-4.75L4832.307,16.264z"/>
		</g>
	</g>
</g>
<g id="Bookmark_8_">
	<g>
		<polygon fill="#96A49E" points="4808.655,11.509 4808.655,28.134 4815.78,25.759 4822.905,28.134 4822.905,11.509 		"/>
	</g>
</g>
<rect x="4782.008" y="34.799" fill="#676767" width="39" height="7.5"/>
<rect x="4792.734" y="49.729" fill="#777777" width="17.547" height="2.59"/>
<rect x="5176.379" y="36.024" fill="#676767" width="26.252" height="5.049"/>
<g>
</g>
<g>
</g>
<g>
	<g id="Cover_36_">
		<g>
			<path fill="#F3F2F1" d="M5414.334,58.289l-2-7.172l-0.029-34.861c0-2.623-2.125-4.75-4.75-4.75h-21.068l-0.021,8.98h-5.969
				l-0.01-8.98l-22.066-0.014c-2.623,0-3.75,2.127-3.75,4.75l-0.002,34.875l-2,7.172l-0.01,22.562c0,2.623,2.127,4.75,4.75,4.75
				l52.184-0.031c2.625,0,4.75-2.127,4.75-4.748L5414.334,58.289z"/>
		</g>
	</g>
</g>
<polygon fill="#96A49E" points="5390.655,11.5 5390.655,16.625 5397.78,14.25 5404.905,16.625 5404.905,11.5 "/>
<rect x="5377" y="37.298" fill="#676767" width="13.01" height="2.502"/>
<g>
	<g id="Cover_33_">
		<g>
			<path fill="#F3F2F1" d="M5511.347,58.291l-4-7.172l-0.029-34.862c0-2.623-2.125-4.75-4.751-4.75h-17.067l-0.021,12.98h-9.969
				l-0.01-12.98l-18.066-0.014c-2.623,0-3.751,2.127-3.751,4.75l-0.001,34.875l-4,7.172l-0.01,22.562c0,2.623,2.127,4.75,4.75,4.75
				l52.184-0.031c2.625,0,4.75-2.127,4.75-4.748L5511.347,58.291z"/>
		</g>
	</g>
</g>
<g>
	<g id="Cover_35_">
		<g>
			<path fill="#F3F2F1" d="M5608.347,58.334l-4.403-7.209l-0.029-34.862c0.039-3.827-1.024-4.754-4.75-4.75l-16.93,0l0.016,16.986
				l-9.465-0.006l-0.009-16.98l-17.972-0.014c-3.337,0.032-3.767,1.005-3.75,4.75l-0.002,34.875l-4.372,7.209l-0.01,22.562
				c0.037,3.4,0.689,4.683,4.382,4.687h52.891c3.744-0.021,4.369-0.896,4.411-4.716L5608.347,58.334z"/>
		</g>
	</g>
</g>
<g>
</g>
<g>
	<g id="Cover_38_">
		<g>
			<path fill="#F3F2F1" d="M5705.347,58.334l-4.403-7.209l-0.029-34.862c0.039-3.827-1.024-4.754-4.75-4.75l-16.93,0l0.016,16.986
				l-9.465-0.006l-0.009-16.98l-17.972-0.014c-3.337,0.032-3.767,1.005-3.75,4.75l-0.002,34.875l-4.372,7.209l-0.01,22.562
				c0.037,3.4,0.689,4.682,4.382,4.686h52.891c3.744-0.02,4.369-0.895,4.411-4.715L5705.347,58.334z"/>
		</g>
	</g>
</g>
<g>
</g>
<g>
	<g id="Cover_40_">
		<g>
			<polygon fill="#F3F2F1" points="5797.943,51.125 5797.943,11.514 5776.234,11.514 5776.25,32.5 5766.785,32.494 5766.776,11.514
				5745.053,11.514 5745.053,51.125 5740.681,58.334 5740.666,85.583 5802.334,85.583 5802.347,58.334 			"/>
		</g>
	</g>
</g>
<g>
	<polygon fill="none" points="5493.982,11.519 5495.547,11.52 5494.765,11.259 	"/>
	<polygon fill="#96A49E" points="5501.89,13.634 5501.89,11.522 5495.547,11.52 	"/>
	<polygon fill="#96A49E" points="5493.982,11.519 5487.64,11.518 5487.64,13.634 	"/>
</g>
<polygon fill="#E4E2DE" points="5745.053,58.297 5745.053,51.125 5740.681,58.334 5740.666,85.583 5745.053,85.583 "/>
<polygon fill="#E4E2DE" points="5797.941,58.297 5797.941,51.125 5802.313,58.334 5802.328,85.583 5797.941,85.583 "/>
<g>
</g>
<g>
	<g id="Cover_42_">
		<g>
			<polygon fill="#F3F2F1" points="5894.943,51.125 5894.943,13.979 5893.943,11.514 5874.234,11.514 5873.234,13.979
				5873.234,34.297 5863.77,34.291 5863.776,13.979 5862.776,11.514 5843.053,11.514 5842.053,13.979 5842.053,51.125
				5837.681,58.334 5837.666,85.583 5899.334,85.583 5899.347,58.334 			"/>
		</g>
	</g>
</g>
<polygon fill="#E4E2DE" points="5842.053,58.297 5842.053,51.125 5837.681,58.334 5837.666,85.583 5842.053,85.583 "/>
<polygon fill="#E4E2DE" points="5894.941,58.297 5894.941,51.125 5899.313,58.334 5899.328,85.583 5894.941,85.583 "/>
<circle fill="#9CABA4" cx="5868.506" cy="55.182" r="1.783"/>
<g>
</g>
<g>
	<g id="Cover_46_">
		<g>
			<polygon fill="#F3F2F1" points="5991.943,51.125 5991.943,13.979 5990.943,11.514 5971.234,11.514 5970.234,13.979
				5970.234,34.297 5960.77,34.291 5960.776,13.979 5959.776,11.514 5940.053,11.514 5939.053,13.979 5939.053,51.125
				5934.681,58.334 5934.666,85.583 5996.334,85.583 5996.347,58.334 			"/>
		</g>
	</g>
</g>
<polygon fill="#E4E2DE" points="5939.053,58.297 5939.053,51.125 5934.681,58.334 5934.666,85.583 5939.053,85.583 "/>
<polygon fill="#E4E2DE" points="5991.941,58.297 5991.941,51.125 5996.313,58.334 5996.328,85.583 5991.941,85.583 "/>
<rect x="5975.096" y="84.54" fill="#96A49E" width="12.488" height="1.043"/>
<rect x="5943.428" y="84.513" fill="#96A49E" width="12.49" height="1.043"/>
<rect x="5959.262" y="84.513" fill="#96A49E" width="12.488" height="1.043"/>
<circle fill="#9CABA4" cx="5965.506" cy="55.182" r="3.703"/>
<g>
</g>
<g>
	<g id="Cover_48_">
		<g>
			<polygon fill="#F3F2F1" points="6088.943,51.125 6088.943,13.979 6087.943,11.514 6068.234,11.514 6067.234,13.979
				6067.234,34.297 6057.77,34.291 6057.776,13.979 6056.776,11.514 6037.053,11.514 6036.053,13.979 6036.053,51.125
				6031.681,58.334 6031.666,85.583 6093.334,85.583 6093.347,58.334 			"/>
		</g>
	</g>
</g>
<polygon fill="#DCD9D5" points="6036.053,58.297 6036.053,51.125 6031.681,58.334 6031.666,85.583 6036.053,85.583 "/>
<polygon fill="#DCD9D5" points="6088.941,58.297 6088.941,51.125 6093.313,58.334 6093.328,85.583 6088.941,85.583 "/>
<rect x="6072.096" y="81.54" fill="#96A49E" width="12.488" height="4.043"/>
<rect x="6040.428" y="81.513" fill="#96A49E" width="12.49" height="4.043"/>
<rect x="6056.262" y="81.513" fill="#96A49E" width="12.488" height="4.043"/>
<path fill="#9CABA4" d="M6067.896,55.183c0-2.979-2.414-5.387-5.389-5.387c-2.977,0-5.392,2.408-5.392,5.387
	c0,2.973,2.415,5.385,5.392,5.385C6065.481,60.567,6067.896,58.155,6067.896,55.183z"/>
<g>
</g>
<g>
	<g id="Cover_50_">
		<g>
			<polygon fill="#F3F2F1" points="6185.943,51.156 6185.943,14.011 6183.943,11.545 6166.234,11.545 6164.234,14.011
				6164.234,34.328 6154.77,34.322 6154.776,14.011 6152.776,11.545 6135.053,11.545 6133.053,14.011 6133.053,51.156
				6128.681,58.365 6128.666,85.614 6190.334,85.614 6190.347,58.365 			"/>
		</g>
	</g>
</g>
<polygon fill="#DCD9D5" points="6133.053,58.328 6133.053,51.156 6128.681,58.365 6128.666,85.614 6133.053,85.614 "/>
<polygon fill="#DCD9D5" points="6185.941,58.328 6185.941,51.156 6190.313,58.365 6190.328,85.614 6185.941,85.614 "/>
<rect x="6169.096" y="77.571" fill="#96A49E" width="12.488" height="8.043"/>
<rect x="6137.428" y="77.544" fill="#96A49E" width="12.49" height="8.043"/>
<rect x="6153.262" y="77.544" fill="#96A49E" width="12.488" height="8.043"/>
<circle fill="#9CABA4" cx="6159.506" cy="55.212" r="6.375"/>
<rect x="6178.492" y="24.625" fill="#9CABA4" width="1.352" height="4.311"/>
<rect x="6178.492" y="55.828" fill="#9CABA4" width="1.352" height="2.529"/>
<rect x="6170.825" y="55.828" fill="#9CABA4" width="1.352" height="2.529"/>
<rect x="6170.825" y="24.625" fill="#9CABA4" width="1.352" height="4.311"/>
<rect x="6139.168" y="24.597" fill="#9CABA4" width="1.352" height="4.312"/>
<rect x="6139.168" y="55.801" fill="#9CABA4" width="1.352" height="2.529"/>
<rect x="6146.836" y="55.801" fill="#9CABA4" width="1.352" height="2.529"/>
<rect x="6146.836" y="24.597" fill="#9CABA4" width="1.352" height="4.312"/>
<g>
</g>
<g>
	<g id="Cover_52_">
		<g>
			<polygon fill="#F3F2F1" points="6282.943,51.125 6282.943,13.979 6280.943,11.514 6263.234,11.514 6261.234,13.979
				6261.234,34.297 6251.77,34.291 6251.776,13.979 6249.776,11.514 6232.053,11.514 6230.053,13.979 6230.053,51.125
				6225.681,58.334 6225.666,85.583 6287.334,85.583 6287.347,58.334 			"/>
		</g>
	</g>
</g>
<polygon fill="#DCD9D5" points="6230.053,58.297 6230.053,51.125 6225.681,58.334 6225.666,85.583 6230.053,85.583 "/>
<polygon fill="#DCD9D5" points="6282.941,58.297 6282.941,51.125 6287.313,58.334 6287.328,85.583 6282.941,85.583 "/>
<rect x="6266.096" y="76.586" fill="#96A49E" width="12.488" height="8.997"/>
<polygon fill="#96A49E" points="6246.912,76.562 6234.422,76.562 6234.428,85.556 6246.918,85.556 "/>
<rect x="6250.262" y="76.586" fill="#96A49E" width="12.488" height="8.97"/>
<circle fill="#9CABA4" cx="6256.506" cy="55.181" r="6.375"/>
<rect x="6274.997" y="23.013" fill="#9CABA4" width="2.342" height="7.472"/>
<rect x="6275.041" y="54.953" fill="#9CABA4" width="2.254" height="4.217"/>
<rect x="6267.375" y="54.953" fill="#9CABA4" width="2.253" height="4.217"/>
<rect x="6267.33" y="23.013" fill="#9CABA4" width="2.342" height="7.472"/>
<rect x="6235.674" y="22.985" fill="#9CABA4" width="2.342" height="7.473"/>
<rect x="6235.717" y="54.925" fill="#9CABA4" width="2.255" height="4.219"/>
<rect x="6243.385" y="54.925" fill="#9CABA4" width="2.254" height="4.219"/>
<rect x="6243.34" y="22.985" fill="#9CABA4" width="2.344" height="7.473"/>
<polygon fill="#DCD9D5" points="6232.052,11.513 6230.052,13.979 6251.775,13.979 6249.775,11.513 "/>
<polygon fill="#DCD9D5" points="6263.219,11.503 6261.219,13.969 6282.942,13.969 6280.942,11.503 "/>
<g>
</g>
<g>
	<g id="Cover_54_">
		<g>
			<polygon fill="#F3F2F1" points="6379.943,51.125 6379.943,13.979 6377.943,11.514 6360.234,11.514 6358.234,13.979
				6358.234,34.297 6348.77,34.291 6348.776,13.979 6346.776,11.514 6329.053,11.514 6327.053,13.979 6327.053,51.125
				6322.681,58.334 6322.666,85.584 6384.334,85.584 6384.347,58.334 			"/>
		</g>
	</g>
</g>
<polygon fill="#CECCC8" points="6327.053,58.297 6327.053,51.125 6322.681,58.334 6322.666,85.584 6327.053,85.584 "/>
<polygon fill="#CECCC8" points="6379.941,58.297 6379.941,51.125 6384.313,58.334 6384.328,85.584 6379.941,85.584 "/>
<rect x="6370.752" y="52.541" fill="#9CABA4" width="4.832" height="9.043"/>
<rect x="6363.084" y="52.541" fill="#9CABA4" width="4.834" height="9.043"/>
<rect x="6331.428" y="52.514" fill="#9CABA4" width="4.834" height="9.043"/>
<rect x="6339.096" y="52.514" fill="#9CABA4" width="4.832" height="9.043"/>
<circle fill="#9CABA4" cx="6353.506" cy="55.182" r="6.375"/>
<rect x="6371.443" y="21.25" fill="#9CABA4" width="3.449" height="10.997"/>
<rect x="6363.777" y="21.25" fill="#9CABA4" width="3.447" height="10.997"/>
<rect x="6332.122" y="21.222" fill="#9CABA4" width="3.444" height="10.999"/>
<rect x="6339.785" y="21.222" fill="#9CABA4" width="3.451" height="10.999"/>
<polygon fill="#CECCC8" points="6329.052,11.513 6327.052,13.979 6348.775,13.979 6346.775,11.513 "/>
<polygon fill="#CECCC8" points="6360.219,11.503 6358.219,13.969 6379.942,13.969 6377.942,11.503 "/>
<polygon fill="#96A49E" points="6343.912,76.514 6337.676,74.223 6331.422,76.514 6331.422,85.557 6343.912,85.557 "/>
<polygon fill="#96A49E" points="6359.752,76.514 6353.516,74.223 6347.262,76.514 6347.262,85.557 6359.752,85.557 "/>
<polygon fill="#96A49E" points="6375.586,76.541 6369.35,74.25 6363.096,76.541 6363.096,85.584 6375.586,85.584 "/>
<g>
</g>
<g>
	<g id="Cover_56_">
		<g>
			<polygon fill="#F3F2F1" points="6476.943,51.125 6476.943,13.979 6474.943,11.514 6457.234,11.514 6455.234,13.979
				6455.234,34.297 6445.77,34.291 6445.776,13.979 6443.776,11.514 6426.053,11.514 6424.053,13.979 6424.053,51.125
				6419.681,58.334 6419.666,85.584 6481.334,85.584 6481.347,58.334 			"/>
		</g>
	</g>
</g>
<polygon fill="#CECCC8" points="6424.053,58.297 6424.053,51.125 6419.681,58.334 6419.666,85.584 6424.053,85.584 "/>
<polygon fill="#CECCC8" points="6476.941,58.297 6476.941,51.125 6481.313,58.334 6481.328,85.584 6476.941,85.584 "/>
<rect x="6467.752" y="19.04" fill="#9CABA4" width="4.832" height="15.418"/>
<rect x="6467.752" y="52.541" fill="#9CABA4" width="4.832" height="9.043"/>
<rect x="6460.084" y="52.541" fill="#9CABA4" width="4.834" height="9.043"/>
<rect x="6460.084" y="19.04" fill="#9CABA4" width="4.834" height="15.418"/>
<rect x="6428.428" y="19.012" fill="#9CABA4" width="4.834" height="15.418"/>
<rect x="6428.428" y="52.514" fill="#9CABA4" width="4.834" height="9.043"/>
<rect x="6436.096" y="52.514" fill="#9CABA4" width="4.832" height="9.043"/>
<rect x="6436.096" y="19.012" fill="#9CABA4" width="4.832" height="15.418"/>
<circle fill="#9CABA4" cx="6450.506" cy="55.182" r="6.375"/>
<polygon fill="#CECCC8" points="6426.052,11.513 6424.052,13.979 6445.775,13.979 6443.775,11.513 "/>
<polygon fill="#CECCC8" points="6457.219,11.503 6455.219,13.969 6476.942,13.969 6474.942,11.503 "/>
<polygon fill="#96A49E" points="6440.912,76.514 6434.676,71.223 6428.422,76.514 6428.422,85.557 6440.912,85.557 "/>
<polygon fill="#96A49E" points="6456.752,76.514 6450.516,71.223 6444.262,76.514 6444.262,85.557 6456.752,85.557 "/>
<polygon fill="#96A49E" points="6472.586,76.541 6466.35,71.25 6460.096,76.541 6460.096,85.584 6472.586,85.584 "/>
<g>
</g>
<g>
	<g id="Cover_44_">
		<g>
			<polygon fill="#F3F2F1" points="6573.943,51.125 6573.943,13.979 6571.943,11.514 6554.234,11.514 6552.234,13.979
				6552.234,34.297 6542.77,34.291 6542.776,13.979 6540.776,11.514 6523.053,11.514 6521.053,13.979 6521.053,51.125
				6516.681,58.334 6516.666,85.584 6578.334,85.584 6578.347,58.334 			"/>
		</g>
	</g>
</g>
<polygon fill="#CECCC8" points="6521.053,58.297 6521.053,51.125 6516.681,58.334 6516.666,85.584 6521.053,85.584 "/>
<polygon fill="#CECCC8" points="6573.941,58.297 6573.941,51.125 6578.313,58.334 6578.328,85.584 6573.941,85.584 "/>
<rect x="6564.752" y="19.04" fill="#9CABA4" width="4.832" height="15.418"/>
<rect x="6564.752" y="52.541" fill="#9CABA4" width="4.832" height="9.043"/>
<rect x="6557.084" y="52.541" fill="#9CABA4" width="4.834" height="9.043"/>
<rect x="6557.084" y="19.04" fill="#9CABA4" width="4.834" height="15.418"/>
<rect x="6525.428" y="19.012" fill="#9CABA4" width="4.834" height="15.418"/>
<rect x="6525.428" y="52.514" fill="#9CABA4" width="4.834" height="9.043"/>
<rect x="6533.096" y="52.514" fill="#9CABA4" width="4.832" height="9.043"/>
<rect x="6533.096" y="19.012" fill="#9CABA4" width="4.832" height="15.418"/>
<circle fill="#9CABA4" cx="6547.506" cy="55.182" r="6.375"/>
<polygon fill="#CECCC8" points="6523.052,11.513 6521.052,13.979 6542.775,13.979 6540.775,11.513 "/>
<polygon fill="#CECCC8" points="6554.219,11.503 6552.219,13.969 6573.942,13.969 6571.942,11.503 "/>
<polygon fill="#96A49E" points="6537.912,76.514 6531.676,71.223 6525.422,76.514 6525.422,85.557 6537.912,85.557 "/>
<polygon fill="#96A49E" points="6553.752,76.514 6547.516,71.223 6541.262,76.514 6541.262,85.557 6553.752,85.557 "/>
<polygon fill="#96A49E" points="6569.586,76.541 6563.35,71.25 6557.096,76.541 6557.096,85.584 6569.586,85.584 "/>
<g>
</g>
<g>
	<g id="Cover_58_">
		<g>
			<polygon fill="#F3F2F1" points="6670.943,51.156 6670.943,14.01 6668.943,11.544 6651.234,11.544 6649.234,14.01
				6649.234,34.328 6639.77,34.322 6639.776,14.01 6637.776,11.544 6620.053,11.544 6618.053,14.01 6618.053,51.156
				6613.681,58.365 6613.666,85.615 6675.334,85.615 6675.347,58.365 			"/>
		</g>
	</g>
</g>
<polygon fill="#CECCC8" points="6618.053,58.328 6618.053,51.156 6613.681,58.365 6613.666,85.615 6618.053,85.615 "/>
<polygon fill="#CECCC8" points="6670.941,58.328 6670.941,51.156 6675.313,58.365 6675.328,85.615 6670.941,85.615 "/>
<rect x="6661.752" y="19.07" fill="#9CABA4" width="4.832" height="15.418"/>
<rect x="6661.752" y="52.572" fill="#9CABA4" width="4.832" height="9.043"/>
<rect x="6654.084" y="52.572" fill="#9CABA4" width="4.834" height="9.043"/>
<rect x="6654.084" y="19.07" fill="#9CABA4" width="4.834" height="15.418"/>
<rect x="6622.428" y="19.043" fill="#9CABA4" width="4.834" height="15.418"/>
<rect x="6622.428" y="52.545" fill="#9CABA4" width="4.834" height="9.043"/>
<rect x="6630.096" y="52.545" fill="#9CABA4" width="4.832" height="9.043"/>
<rect x="6630.096" y="19.043" fill="#9CABA4" width="4.832" height="15.418"/>
<circle fill="#9CABA4" cx="6644.506" cy="55.213" r="6.375"/>
<polygon fill="#CECCC8" points="6620.052,11.544 6618.052,14.01 6639.775,14.01 6637.775,11.544 "/>
<polygon fill="#CECCC8" points="6651.219,11.534 6649.219,14 6670.942,14 6668.942,11.534 "/>
<polygon fill="#96A49E" points="6634.912,76.545 6628.676,71.254 6622.422,76.545 6622.422,85.588 6634.912,85.588 "/>
<polygon fill="#96A49E" points="6650.752,76.545 6644.516,71.254 6638.262,76.545 6638.262,85.588 6650.752,85.588 "/>
<polygon fill="#96A49E" points="6666.586,76.572 6660.35,71.281 6654.096,76.572 6654.096,85.615 6666.586,85.615 "/>
<g>
	<g id="Cover_73_">
		<g>
			<polygon fill="#F3F2F1" points="6767.943,51.125 6767.943,13.979 6765.943,11.514 6748.234,11.514 6746.234,13.979
				6746.234,34.297 6736.77,34.291 6736.776,13.979 6734.776,11.514 6717.053,11.514 6715.053,13.979 6715.053,51.125
				6710.681,58.334 6710.666,85.584 6772.334,85.584 6772.347,58.334 			"/>
		</g>
	</g>
</g>
<polygon fill="#CECCC8" points="6715.053,58.297 6715.053,51.125 6710.681,58.334 6710.666,85.584 6715.053,85.584 "/>
<polygon fill="#CECCC8" points="6767.941,58.297 6767.941,51.125 6772.313,58.334 6772.328,85.584 6767.941,85.584 "/>
<rect x="6758.752" y="19.04" fill="#9CABA4" width="4.832" height="15.418"/>
<rect x="6758.752" y="52.541" fill="#9CABA4" width="4.832" height="9.043"/>
<rect x="6751.084" y="52.541" fill="#9CABA4" width="4.834" height="9.043"/>
<rect x="6751.084" y="19.04" fill="#9CABA4" width="4.834" height="15.418"/>
<rect x="6719.428" y="19.012" fill="#9CABA4" width="4.834" height="15.418"/>
<rect x="6719.428" y="52.514" fill="#9CABA4" width="4.834" height="9.043"/>
<rect x="6727.096" y="52.514" fill="#9CABA4" width="4.832" height="9.043"/>
<rect x="6727.096" y="19.012" fill="#9CABA4" width="4.832" height="15.418"/>
<circle fill="#9CABA4" cx="6741.506" cy="55.182" r="6.375"/>
<polygon fill="#CECCC8" points="6717.052,11.513 6715.052,13.979 6736.775,13.979 6734.775,11.513 "/>
<polygon fill="#CECCC8" points="6748.219,11.503 6746.219,13.969 6767.942,13.969 6765.942,11.503 "/>
<polygon fill="#96A49E" points="6731.912,76.514 6725.676,71.223 6719.422,76.514 6719.422,85.557 6731.912,85.557 "/>
<polygon fill="#96A49E" points="6747.752,76.514 6741.516,71.223 6735.262,76.514 6735.262,85.557 6747.752,85.557 "/>
<polygon fill="#96A49E" points="6763.586,76.541 6757.35,71.25 6751.096,76.541 6751.096,85.584 6763.586,85.584 "/>
<g>
	<g id="Cover_76_">
		<g>
			<polygon fill="#F3F2F1" points="6864.943,51.125 6864.943,13.979 6862.943,11.514 6845.234,11.514 6843.234,13.979
				6843.234,34.297 6833.77,34.291 6833.776,13.979 6831.776,11.514 6814.053,11.514 6812.053,13.979 6812.053,51.125
				6807.681,58.334 6807.666,85.584 6869.334,85.584 6869.347,58.334 			"/>
		</g>
	</g>
</g>
<polygon fill="#CECCC8" points="6812.053,58.297 6812.053,51.125 6807.681,58.334 6807.666,85.584 6812.053,85.584 "/>
<polygon fill="#CECCC8" points="6864.941,58.297 6864.941,51.125 6869.313,58.334 6869.328,85.584 6864.941,85.584 "/>
<rect x="6855.752" y="19.04" fill="#9CABA4" width="4.832" height="15.418"/>
<rect x="6855.752" y="52.541" fill="#9CABA4" width="4.832" height="9.043"/>
<rect x="6848.084" y="52.541" fill="#9CABA4" width="4.834" height="9.043"/>
<rect x="6848.084" y="19.04" fill="#9CABA4" width="4.834" height="15.418"/>
<rect x="6816.428" y="19.012" fill="#9CABA4" width="4.834" height="15.418"/>
<rect x="6816.428" y="52.514" fill="#9CABA4" width="4.834" height="9.043"/>
<rect x="6824.096" y="52.514" fill="#9CABA4" width="4.832" height="9.043"/>
<rect x="6824.096" y="19.012" fill="#9CABA4" width="4.832" height="15.418"/>
<circle fill="#9CABA4" cx="6838.506" cy="55.182" r="6.375"/>
<polygon fill="#CECCC8" points="6814.052,11.513 6812.052,13.979 6833.775,13.979 6831.775,11.513 "/>
<polygon fill="#CECCC8" points="6845.219,11.503 6843.219,13.969 6864.942,13.969 6862.942,11.503 "/>
<polygon fill="#96A49E" points="6828.912,76.514 6822.676,71.223 6816.422,76.514 6816.422,85.557 6828.912,85.557 "/>
<polygon fill="#96A49E" points="6844.752,76.514 6838.516,71.223 6832.262,76.514 6832.262,85.557 6844.752,85.557 "/>
<polygon fill="#96A49E" points="6860.586,76.541 6854.35,71.25 6848.096,76.541 6848.096,85.584 6860.586,85.584 "/>
<g>
	<g id="Cover_78_">
		<g>
			<polygon fill="#F3F2F1" points="6961.943,51.082 6961.943,13.937 6959.943,11.471 6942.234,11.471 6940.234,13.937
				6940.234,34.254 6930.77,34.248 6930.776,13.937 6928.776,11.471 6911.053,11.471 6909.053,13.937 6909.053,51.082
				6904.681,58.291 6904.666,85.541 6966.334,85.541 6966.347,58.291 			"/>
		</g>
	</g>
</g>
<polygon fill="#CECCC8" points="6909.053,58.254 6909.053,51.082 6904.681,58.291 6904.666,85.541 6909.053,85.541 "/>
<polygon fill="#CECCC8" points="6961.941,58.254 6961.941,51.082 6966.313,58.291 6966.328,85.541 6961.941,85.541 "/>
<rect x="6952.752" y="18.997" fill="#9CABA4" width="4.832" height="15.418"/>
<rect x="6952.752" y="52.498" fill="#9CABA4" width="4.832" height="9.043"/>
<rect x="6945.084" y="52.498" fill="#9CABA4" width="4.834" height="9.043"/>
<rect x="6945.084" y="18.997" fill="#9CABA4" width="4.834" height="15.418"/>
<rect x="6913.428" y="18.969" fill="#9CABA4" width="4.834" height="15.418"/>
<rect x="6913.428" y="52.471" fill="#9CABA4" width="4.834" height="9.043"/>
<rect x="6921.096" y="52.471" fill="#9CABA4" width="4.832" height="9.043"/>
<rect x="6921.096" y="18.969" fill="#9CABA4" width="4.832" height="15.418"/>
<circle fill="#9CABA4" cx="6935.506" cy="55.139" r="6.375"/>
<polygon fill="#CECCC8" points="6911.052,11.47 6909.052,13.936 6930.775,13.936 6928.775,11.47 "/>
<polygon fill="#CECCC8" points="6942.219,11.46 6940.219,13.926 6961.942,13.926 6959.942,11.46 "/>
<polygon fill="#96A49E" points="6925.912,76.471 6919.676,71.18 6913.422,76.471 6913.422,85.514 6925.912,85.514 "/>
<polygon fill="#96A49E" points="6941.752,76.471 6935.516,71.18 6929.262,76.471 6929.262,85.514 6941.752,85.514 "/>
<polygon fill="#96A49E" points="6957.586,76.498 6951.35,71.207 6945.096,76.498 6945.096,85.541 6957.586,85.541 "/>
<g>
	<g id="Cover_80_">
		<g>
			<polygon fill="#F3F2F1" points="7058.943,51.125 7058.943,13.979 7056.943,11.514 7039.234,11.514 7037.234,13.979
				7037.234,34.297 7027.77,34.291 7027.776,13.979 7025.776,11.514 7008.053,11.514 7006.053,13.979 7006.053,51.125
				7001.681,58.334 7001.666,85.584 7063.334,85.584 7063.347,58.334 			"/>
		</g>
	</g>
</g>
<polygon fill="#CECCC8" points="7006.053,58.297 7006.053,51.125 7001.681,58.334 7001.666,85.584 7006.053,85.584 "/>
<polygon fill="#CECCC8" points="7058.941,58.297 7058.941,51.125 7063.313,58.334 7063.328,85.584 7058.941,85.584 "/>
<rect x="7049.752" y="19.04" fill="#9CABA4" width="4.832" height="15.418"/>
<rect x="7049.752" y="52.541" fill="#9CABA4" width="4.832" height="9.043"/>
<rect x="7042.084" y="52.541" fill="#9CABA4" width="4.834" height="9.043"/>
<rect x="7042.084" y="19.04" fill="#9CABA4" width="4.834" height="15.418"/>
<rect x="7010.428" y="19.012" fill="#9CABA4" width="4.834" height="15.418"/>
<rect x="7010.428" y="52.514" fill="#9CABA4" width="4.834" height="9.043"/>
<rect x="7018.096" y="52.514" fill="#9CABA4" width="4.832" height="9.043"/>
<rect x="7018.096" y="19.012" fill="#9CABA4" width="4.832" height="15.418"/>
<circle fill="#9CABA4" cx="7032.506" cy="55.182" r="6.375"/>
<polygon fill="#CECCC8" points="7008.052,11.513 7006.052,13.979 7027.775,13.979 7025.775,11.513 "/>
<polygon fill="#CECCC8" points="7039.219,11.503 7037.219,13.969 7058.942,13.969 7056.942,11.503 "/>
<polygon fill="#96A49E" points="7022.912,76.514 7016.676,71.223 7010.422,76.514 7010.422,85.557 7022.912,85.557 "/>
<polygon fill="#96A49E" points="7038.752,76.514 7032.516,71.223 7026.262,76.514 7026.262,85.557 7038.752,85.557 "/>
<polygon fill="#96A49E" points="7054.586,76.541 7048.35,71.25 7042.096,76.541 7042.096,85.584 7054.586,85.584 "/>
<g>
</g>
<g>
	<g id="Cover_60_">
		<g>
			<polygon fill="#F3F2F1" points="7155.943,51.125 7155.943,13.979 7153.943,11.513 7136.234,11.513 7134.234,13.979
				7134.234,34.296 7124.77,34.291 7124.776,13.979 7122.776,11.513 7105.053,11.513 7103.053,13.979 7103.053,51.125
				7098.681,58.334 7098.666,85.584 7160.334,85.584 7160.347,58.334 			"/>
		</g>
	</g>
</g>
<polygon fill="#CECCC8" points="7103.053,58.297 7103.053,51.125 7098.681,58.334 7098.666,85.584 7103.053,85.584 "/>
<polygon fill="#CECCC8" points="7155.941,58.297 7155.941,51.125 7160.313,58.334 7160.328,85.584 7155.941,85.584 "/>
<rect x="7146.752" y="19.039" fill="#9CABA4" width="4.832" height="15.418"/>
<rect x="7146.752" y="52.541" fill="#9CABA4" width="4.832" height="9.043"/>
<rect x="7139.084" y="52.541" fill="#9CABA4" width="4.834" height="9.043"/>
<rect x="7139.084" y="19.039" fill="#9CABA4" width="4.834" height="15.418"/>
<rect x="7107.428" y="19.012" fill="#9CABA4" width="4.834" height="15.418"/>
<rect x="7107.428" y="52.514" fill="#9CABA4" width="4.834" height="9.043"/>
<rect x="7115.096" y="52.514" fill="#9CABA4" width="4.832" height="9.043"/>
<rect x="7115.096" y="19.012" fill="#9CABA4" width="4.832" height="15.418"/>
<circle fill="#9CABA4" cx="7129.506" cy="55.182" r="6.375"/>
<polygon fill="#CECCC8" points="7105.052,11.513 7103.052,13.979 7124.775,13.979 7122.775,11.513 "/>
<polygon fill="#CECCC8" points="7136.219,11.502 7134.219,13.968 7155.942,13.968 7153.942,11.502 "/>
<polygon fill="#96A49E" points="7119.912,76.514 7113.676,71.223 7107.422,76.514 7107.422,85.557 7119.912,85.557 "/>
<polygon fill="#96A49E" points="7135.752,76.514 7129.516,71.223 7123.262,76.514 7123.262,85.557 7135.752,85.557 "/>
<polygon fill="#96A49E" points="7151.586,76.541 7145.35,71.25 7139.096,76.541 7139.096,85.584 7151.586,85.584 "/>
<g>
</g>
<circle fill="#9CABA4" cx="7711.5" cy="48.554" r="1.783"/>
<g>
</g>
<rect x="7624.096" y="84.57" fill="#96A49E" width="12.488" height="1.043"/>
<rect x="7592.428" y="84.543" fill="#96A49E" width="12.49" height="1.043"/>
<rect x="7608.262" y="84.543" fill="#96A49E" width="12.488" height="1.043"/>
<circle fill="#9CABA4" cx="7614.506" cy="55.213" r="3.703"/>
<g>
</g>
<g>
	<g id="Cover_68_">
		<g>
			<polygon fill="#F3F2F1" points="7548.334,11.514 7519.234,11.544 7519.234,34.328 7515.77,34.322 7515.775,11.544
				7486.666,11.514 7486.681,58.365 7486.666,85.613 7548.334,85.613 7548.346,58.365 			"/>
		</g>
	</g>
</g>
<rect x="7527.096" y="81.57" fill="#96A49E" width="12.488" height="4.043"/>
<rect x="7495.428" y="81.543" fill="#96A49E" width="12.49" height="4.043"/>
<rect x="7511.262" y="81.543" fill="#96A49E" width="12.488" height="4.043"/>
<path fill="#9CABA4" d="M7522.895,55.213c0-2.979-2.413-5.387-5.388-5.387c-2.977,0-5.392,2.408-5.392,5.387
	c0,2.973,2.415,5.385,5.392,5.385C7520.481,60.598,7522.895,58.186,7522.895,55.213z"/>
<g>
</g>
<g>
	<g id="Cover_66_">
		<g>
			<polygon fill="#F3F2F1" points="7448.943,51.156 7448.943,14.011 7446.943,11.545 7425.234,11.545 7423.234,14.011
				7423.234,30.328 7417.77,30.322 7417.776,14.011 7415.776,11.545 7394.053,11.545 7392.053,14.011 7392.053,51.156
				7389.681,58.365 7389.666,85.614 7451.334,85.614 7451.347,58.365 			"/>
		</g>
	</g>
</g>
<polygon opacity="0.5" fill="#DDDAD6" points="7394.053,58.328 7392.053,51.156 7389.681,58.365 7389.666,85.614 7394.053,85.614
	"/>
<polygon opacity="0.5" fill="#DDDAD6" points="7446.941,58.328 7448.943,51.156 7451.313,58.365 7451.328,85.614 7446.941,85.614
	"/>
<rect x="7430.096" y="77.571" fill="#96A49E" width="12.488" height="8.043"/>
<rect x="7398.428" y="77.544" fill="#96A49E" width="12.49" height="8.043"/>
<rect x="7414.262" y="77.544" fill="#96A49E" width="12.488" height="8.043"/>
<circle fill="#9CABA4" cx="7420.506" cy="55.212" r="6.375"/>
<rect x="7439.492" y="24.625" fill="#9CABA4" width="1.352" height="4.311"/>
<rect x="7439.492" y="55.828" fill="#9CABA4" width="1.352" height="2.529"/>
<rect x="7431.825" y="55.828" fill="#9CABA4" width="1.352" height="2.529"/>
<rect x="7431.825" y="24.625" fill="#9CABA4" width="1.352" height="4.311"/>
<rect x="7400.168" y="24.597" fill="#9CABA4" width="1.352" height="4.312"/>
<rect x="7400.168" y="55.801" fill="#9CABA4" width="1.352" height="2.529"/>
<rect x="7407.836" y="55.801" fill="#9CABA4" width="1.352" height="2.529"/>
<rect x="7407.836" y="24.597" fill="#9CABA4" width="1.352" height="4.312"/>
<g>
</g>
<g>
	<g id="Cover_64_">
		<g>
			<polygon fill="#F3F2F1" points="7349.943,51.156 7349.943,14.01 7347.943,11.544 7330.234,11.544 7328.234,14.01
				7328.234,34.328 7318.77,34.322 7318.776,14.01 7316.776,11.544 7299.053,11.544 7297.053,14.01 7297.053,51.156
				7292.681,58.365 7292.666,85.613 7354.334,85.613 7354.347,58.365 			"/>
		</g>
	</g>
</g>
<polygon fill="#DCD9D5" points="7297.053,58.328 7297.053,51.156 7292.681,58.365 7292.666,85.613 7297.053,85.613 "/>
<polygon fill="#DCD9D5" points="7349.941,58.328 7349.941,51.156 7354.313,58.365 7354.328,85.613 7349.941,85.613 "/>
<rect x="7333.096" y="76.617" fill="#96A49E" width="12.488" height="8.996"/>
<polygon fill="#96A49E" points="7313.912,76.594 7301.422,76.594 7301.428,85.586 7313.918,85.586 "/>
<rect x="7317.262" y="76.617" fill="#96A49E" width="12.488" height="8.969"/>
<circle fill="#9CABA4" cx="7323.506" cy="55.211" r="6.375"/>
<rect x="7341.997" y="23.043" fill="#9CABA4" width="2.342" height="7.472"/>
<rect x="7342.041" y="54.984" fill="#9CABA4" width="2.254" height="4.217"/>
<rect x="7334.375" y="54.984" fill="#9CABA4" width="2.253" height="4.217"/>
<rect x="7334.33" y="23.043" fill="#9CABA4" width="2.342" height="7.472"/>
<rect x="7302.674" y="23.015" fill="#9CABA4" width="2.342" height="7.473"/>
<rect x="7302.717" y="54.955" fill="#9CABA4" width="2.254" height="4.219"/>
<rect x="7310.385" y="54.955" fill="#9CABA4" width="2.254" height="4.219"/>
<rect x="7310.34" y="23.015" fill="#9CABA4" width="2.344" height="7.473"/>
<polygon fill="#DCD9D5" points="7299.052,11.544 7297.052,14.009 7318.775,14.009 7316.775,11.544 "/>
<polygon fill="#DCD9D5" points="7330.219,11.534 7328.219,14 7349.942,14 7347.942,11.534 "/>
<g>
</g>
<g>
	<g id="Cover_62_">
		<g>
			<polygon fill="#F3F2F1" points="7252.943,51.16 7252.943,14.014 7250.943,11.548 7233.234,11.548 7231.234,14.014
				7231.234,34.331 7221.77,34.325 7221.776,14.014 7219.776,11.548 7202.053,11.548 7200.053,14.014 7200.053,51.16
				7195.681,58.369 7195.666,85.619 7257.334,85.619 7257.347,58.369 			"/>
		</g>
	</g>
</g>
<polygon fill="#CECCC8" points="7200.053,58.332 7200.053,51.16 7195.681,58.369 7195.666,85.619 7200.053,85.619 "/>
<polygon fill="#CECCC8" points="7252.941,58.332 7252.941,51.16 7257.313,58.369 7257.328,85.619 7252.941,85.619 "/>
<rect x="7243.752" y="52.576" fill="#9CABA4" width="4.832" height="9.043"/>
<rect x="7236.084" y="52.576" fill="#9CABA4" width="4.834" height="9.043"/>
<rect x="7204.428" y="52.549" fill="#9CABA4" width="4.834" height="9.043"/>
<rect x="7212.096" y="52.549" fill="#9CABA4" width="4.832" height="9.043"/>
<circle fill="#9CABA4" cx="7226.506" cy="55.217" r="6.375"/>
<rect x="7244.443" y="21.284" fill="#9CABA4" width="3.449" height="10.997"/>
<rect x="7236.777" y="21.284" fill="#9CABA4" width="3.447" height="10.997"/>
<rect x="7205.122" y="21.256" fill="#9CABA4" width="3.444" height="10.999"/>
<rect x="7212.785" y="21.256" fill="#9CABA4" width="3.451" height="10.999"/>
<polygon fill="#CECCC8" points="7202.052,11.548 7200.052,14.013 7221.775,14.013 7219.775,11.548 "/>
<polygon fill="#CECCC8" points="7233.219,11.537 7231.219,14.003 7252.942,14.003 7250.942,11.537 "/>
<polygon fill="#96A49E" points="7216.912,76.549 7210.676,74.258 7204.422,76.549 7204.422,85.592 7216.912,85.592 "/>
<polygon fill="#96A49E" points="7232.752,76.549 7226.516,74.258 7220.262,76.549 7220.262,85.592 7232.752,85.592 "/>
<polygon fill="#96A49E" points="7248.586,76.576 7242.35,74.285 7236.096,76.576 7236.096,85.619 7248.586,85.619 "/>
<g>
</g>
<g>
</g>
<rect x="8175.385" y="21.295" fill="none" width="21.1" height="54.576"/>
<g>
	<path fill="#F3F2F1" d="M8174.307,14.937h-3.029v43.737V73.92v7.311v0.832h25.205c0-0.338,0-0.562,0.002-0.562V61.871h-7.1V35.295
		h7.1v-10l0.014-10.358H8174.307z"/>
	<path fill="#009640" d="M8196.482,82.062h0.002V81.5C8196.482,81.5,8196.482,81.725,8196.482,82.062z"/>
	<polygon fill="#F3F2F1" points="8221.188,14.937 8218.758,14.937 8196.498,14.937 8196.498,14.937 8196.484,35.295
		8203.715,35.295 8203.715,61.871 8196.484,61.871 8196.484,81.5 8196.484,82.062 8221.723,82.062 8221.723,81.762 8221.723,74.414
		8221.723,58.42 8221.723,25.355 8221.723,23.54 8221.723,15.358 8221.723,14.937 	"/>
</g>
<g>
	<path fill="#F3F2F1" d="M7837.406,13.811h-57.826l0.014,43.933l-0.014,25.552h57.826l0.014-25.552L7837.406,13.811z
		 M7810.406,50.99h-3.812v-4.875h3.812V50.99z"/>
</g>
<rect x="7884.385" y="21.295" fill="none" width="21.1" height="54.576"/>
<g>
	<path fill="#F3F2F1" d="M7933.418,15h-55.848l0.014,42.428l-0.014,24.678h55.848l0.012-24.678L7933.418,15z M7909.168,54.136
		h-7.334V42.97h7.334V54.136z"/>
</g>
<rect x="7981.385" y="21.295" fill="none" width="21.1" height="54.576"/>
<g>
	<path fill="#F3F2F1" d="M8028.918,15h-52.848l0.014,42.428l-0.014,24.678h52.848l0.012-24.678L8028.918,15z M8007.875,58.428
		h-10.75v-19.75h10.75V58.428z"/>
</g>
<rect x="8078.385" y="21.295" fill="none" width="21.1" height="54.576"/>
<g>
	<path fill="#F3F2F1" d="M8074.168,14.833v67.25h50.5v-67.25H8074.168z M8105.834,60.344h-12.668V36.761h12.668V60.344z"/>
</g>
</svg>
